<svg width="24" height="24" viewBox="0 0 24 24" fill="none" xmlns="http://www.w3.org/2000/svg">
<circle cx="12" cy="12" r="2" fill="#070335"/>
<path d="M12 18C17.48 18 22 15.4068 22 12C22 8.5932 17.48 6 12 6C6.52 6 2 8.5932 2 12C2 15.4068 6.52 18 12 18ZM12 7.2C16.9165 7.2 20.8235 9.4416 20.8235 12C20.8235 14.5584 16.9165 16.8 12 16.8C7.08353 16.8 3.17647 14.5584 3.17647 12C3.17647 9.4416 7.08353 7.2 12 7.2Z" fill="#070335"/>
<path d="M12 18C17.48 18 22 15.4068 22 12C22 8.5932 17.48 6 12 6C6.52 6 2 8.5932 2 12C2 15.4068 6.52 18 12 18ZM12 7.2C16.9165 7.2 20.8235 9.4416 20.8235 12C20.8235 14.5584 16.9165 16.8 12 16.8C7.08353 16.8 3.17647 14.5584 3.17647 12C3.17647 9.4416 7.08353 7.2 12 7.2Z" stroke="#070335"/>
</svg>
