<svg width="20" height="12" viewBox="0 0 20 12" fill="none" xmlns="http://www.w3.org/2000/svg">
<circle cx="10" cy="6" r="2" fill="#070335"/>
<path d="M10 12C15.48 12 20 9.4068 20 6C20 2.5932 15.48 0 10 0C4.52 0 0 2.5932 0 6C0 9.4068 4.52 12 10 12ZM10 1.2C14.9165 1.2 18.8235 3.4416 18.8235 6C18.8235 8.5584 14.9165 10.8 10 10.8C5.08353 10.8 1.17647 8.5584 1.17647 6C1.17647 3.4416 5.08353 1.2 10 1.2Z" fill="#070335"/>
<path d="M10 12C15.48 12 20 9.4068 20 6C20 2.5932 15.48 0 10 0C4.52 0 0 2.5932 0 6C0 9.4068 4.52 12 10 12ZM10 1.2C14.9165 1.2 18.8235 3.4416 18.8235 6C18.8235 8.5584 14.9165 10.8 10 10.8C5.08353 10.8 1.17647 8.5584 1.17647 6C1.17647 3.4416 5.08353 1.2 10 1.2Z" stroke="#070335"/>
</svg>
