<svg width="20" height="18" viewBox="0 0 20 18" fill="none" xmlns="http://www.w3.org/2000/svg">
<path d="M7.0977 1.8405C6.87178 2.05147 6.74487 2.33757 6.74487 2.63588C6.74487 2.93419 6.87178 3.22028 7.0977 3.43125L13.0627 9L7.0977 14.5688C6.87819 14.7809 6.75672 15.0651 6.75947 15.3601C6.76221 15.655 6.88895 15.9372 7.11238 16.1458C7.3358 16.3544 7.63804 16.4727 7.95401 16.4753C8.26997 16.4778 8.57437 16.3644 8.80164 16.1595L15.6186 9.79538C15.8445 9.58441 15.9715 9.29831 15.9715 9C15.9715 8.70169 15.8445 8.41559 15.6186 8.20463L8.80164 1.8405C8.57566 1.6296 8.26921 1.51112 7.94967 1.51112C7.63013 1.51112 7.32368 1.6296 7.0977 1.8405Z" fill="#070335"/>
</svg>
