<svg width="25" height="25" viewBox="0 0 25 25" fill="none" xmlns="http://www.w3.org/2000/svg">
<g clip-path="url(#clip0_556_2)">
<path fill-rule="evenodd" clip-rule="evenodd" d="M12.4965 0.0821386C14.3525 0.0816088 16.185 0.49713 17.8593 1.29814C19.5336 2.09916 21.007 3.26528 22.1712 4.71076C23.3354 6.15625 24.1608 7.84431 24.5866 9.65081C25.0125 11.4573 25.028 13.3363 24.6319 15.1496C24.2359 16.9628 23.4385 18.6643 22.2983 20.1288C21.1581 21.5932 19.7041 22.7835 18.0432 23.612C16.3824 24.4405 14.557 24.8862 12.7012 24.9162C10.8454 24.9463 9.00651 24.56 7.31971 23.7857L1.13043 24.9054C0.975213 24.9331 0.815427 24.9192 0.667313 24.8652C0.519199 24.8111 0.388041 24.7188 0.287175 24.5976C0.186309 24.4764 0.119332 24.3307 0.0930542 24.1752C0.0667765 24.0197 0.0821354 23.8601 0.137569 23.7125L1.91257 18.9875C0.759616 17.1057 0.128979 14.9507 0.085575 12.7442C0.0421711 10.5378 0.587569 8.35959 1.66562 6.43393C2.74368 4.50827 4.31545 2.9047 6.21912 1.78828C8.1228 0.671866 10.2896 0.0829441 12.4965 0.0821386ZM8.92864 12.5C8.92864 12.9736 8.7405 13.4278 8.40562 13.7627C8.07073 14.0976 7.61653 14.2857 7.14293 14.2857C6.66933 14.2857 6.21512 14.0976 5.88024 13.7627C5.54535 13.4278 5.35721 12.9736 5.35721 12.5C5.35721 12.0264 5.54535 11.5722 5.88024 11.2373C6.21512 10.9024 6.66933 10.7143 7.14293 10.7143C7.61653 10.7143 8.07073 10.9024 8.40562 11.2373C8.7405 11.5722 8.92864 12.0264 8.92864 12.5ZM12.5001 14.2857C12.9737 14.2857 13.4279 14.0976 13.7628 13.7627C14.0976 13.4278 14.2858 12.9736 14.2858 12.5C14.2858 12.0264 14.0976 11.5722 13.7628 11.2373C13.4279 10.9024 12.9737 10.7143 12.5001 10.7143C12.0265 10.7143 11.5723 10.9024 11.2374 11.2373C10.9025 11.5722 10.7144 12.0264 10.7144 12.5C10.7144 12.9736 10.9025 13.4278 11.2374 13.7627C11.5723 14.0976 12.0265 14.2857 12.5001 14.2857ZM17.8572 14.2857C18.3308 14.2857 18.785 14.0976 19.1199 13.7627C19.4548 13.4278 19.6429 12.9736 19.6429 12.5C19.6429 12.0264 19.4548 11.5722 19.1199 11.2373C18.785 10.9024 18.3308 10.7143 17.8572 10.7143C17.3836 10.7143 16.9294 10.9024 16.5945 11.2373C16.2596 11.5722 16.0715 12.0264 16.0715 12.5C16.0715 12.9736 16.2596 13.4278 16.5945 13.7627C16.9294 14.0976 17.3836 14.2857 17.8572 14.2857Z" fill="#070335"/>
</g>
<defs>
<clipPath id="clip0_556_2">
<rect width="25" height="25" fill="white"/>
</clipPath>
</defs>
</svg>
