<svg width="40" height="40" viewBox="0 0 40 40" fill="none" xmlns="http://www.w3.org/2000/svg">
<path d="M38.75 25.6694L38.2069 24.1763L38.1956 24.1813C38.0977 24.2169 37.9937 24.2329 37.8896 24.2283C37.7856 24.2237 37.6834 24.1986 37.589 24.1545C37.4946 24.1104 37.4098 24.0481 37.3396 23.9712C37.2693 23.8942 37.2148 23.8042 37.1794 23.7063C37.1435 23.6074 37.1276 23.5023 37.1326 23.3972C37.1377 23.2922 37.1635 23.1891 37.2087 23.0941C37.2539 22.9991 37.3175 22.914 37.3958 22.8438C37.4741 22.7736 37.5656 22.7196 37.665 22.685L37.1225 21.1931C37.1187 21.1938 37.115 21.1963 37.1112 21.1975C36.9133 21.2695 36.6949 21.26 36.504 21.171C36.3132 21.0819 36.1655 20.9207 36.0934 20.7228C36.0214 20.5249 36.031 20.3065 36.12 20.1156C36.209 19.9247 36.3702 19.777 36.5681 19.705L36.58 19.7019L36.0375 18.2088C35.9393 18.2458 35.8347 18.2631 35.7298 18.2596C35.6249 18.2561 35.5217 18.2319 35.4262 18.1883C35.3306 18.1447 35.2447 18.0827 35.1733 18.0057C35.1019 17.9288 35.0464 17.8385 35.01 17.74C34.86 17.3281 35.0725 16.8719 35.4837 16.7219C35.4869 16.72 35.4919 16.7194 35.4956 16.7181L34.9531 15.2256C34.9487 15.2263 34.9444 15.2281 34.9406 15.2294C34.7496 15.2993 34.5391 15.2929 34.3527 15.2117C34.1662 15.1305 34.0182 14.9806 33.9394 14.7931C33.4429 14.8508 32.9398 14.8013 32.464 14.6479C31.9883 14.4944 31.5511 14.2407 31.1819 13.9038C31.1782 13.1355 31.427 12.3874 31.89 11.7744C31.7702 11.6138 31.7156 11.4138 31.7371 11.2147C31.7587 11.0155 31.8548 10.8318 32.0062 10.7006L30.985 9.48438C30.9819 9.48625 30.98 9.48938 30.9762 9.49313C30.8965 9.56017 30.8043 9.61082 30.705 9.64215C30.6056 9.67349 30.5011 9.68489 30.3973 9.67572C30.2935 9.66654 30.1926 9.63697 30.1003 9.58869C30.008 9.54041 29.9261 9.47437 29.8594 9.39438C29.7241 9.23316 29.6583 9.0248 29.6766 8.81512C29.6949 8.60545 29.7957 8.41161 29.9569 8.27625C29.96 8.27437 29.9631 8.27125 29.9662 8.26813L28.9462 7.0525L28.9375 7.06C28.858 7.12913 28.7655 7.18173 28.6654 7.21473C28.5653 7.24774 28.4597 7.26048 28.3546 7.25222C28.2495 7.24397 28.1472 7.21488 28.0535 7.16664C27.9598 7.11841 27.8767 7.05201 27.8089 6.9713C27.7411 6.8906 27.6901 6.79721 27.6588 6.69658C27.6275 6.59595 27.6166 6.4901 27.6267 6.3852C27.6367 6.2803 27.6676 6.17846 27.7174 6.0856C27.7672 5.99275 27.835 5.91075 27.9169 5.84438L27.9269 5.83688L26.9069 4.62063C26.8275 4.68953 26.7352 4.74194 26.6354 4.77482C26.5356 4.80769 26.4302 4.82037 26.3255 4.81211C26.2207 4.80385 26.1186 4.77482 26.0252 4.7267C25.9318 4.67859 25.8488 4.61236 25.7812 4.53188C25.7141 4.45207 25.6634 4.35982 25.6319 4.2604C25.6004 4.16097 25.5889 4.05632 25.5979 3.95243C25.6069 3.84853 25.6362 3.74743 25.6843 3.65489C25.7324 3.56235 25.7983 3.4802 25.8781 3.41313C25.8812 3.41 25.885 3.40813 25.8881 3.40625L24.8675 2.18875L24.8575 2.19688C24.7018 2.32762 24.5018 2.39346 24.2989 2.38078C24.096 2.3681 23.9057 2.27786 23.7675 2.12875C23.2782 2.37613 22.7376 2.50481 22.1894 2.50438C21.6768 2.50514 21.1703 2.39323 20.7058 2.17657C20.2413 1.95992 19.8301 1.64381 19.5012 1.25063L1.6825 16.2125C2.28064 16.9259 2.57108 17.8477 2.48998 18.7751C2.40888 19.7026 1.96289 20.5599 1.25 21.1588L7.67687 28.8237L10.525 36.6519C11.3994 36.334 12.3642 36.3764 13.2073 36.7699C14.0504 37.1634 14.7027 37.8756 15.0206 38.75L36.8794 30.7887C36.6075 30.0413 36.5974 29.2236 36.8509 28.4697C37.1043 27.7158 37.6062 27.0702 38.2744 26.6388C38.2168 26.447 38.2338 26.2405 38.322 26.0607C38.4102 25.881 38.5631 25.7412 38.75 25.6694ZM31.2981 17.27L34.6387 26.4544C34.7267 26.6977 34.7147 26.9659 34.6053 27.2003C34.4959 27.4347 34.298 27.6162 34.055 27.705L15.2012 34.5712C14.9585 34.6591 14.6908 34.647 14.4568 34.5379C14.2229 34.4287 14.0418 34.2312 13.9531 33.9887L12.5075 30.015C13.16 30.2107 13.7408 30.5933 14.1781 31.1156L19.9212 26.2931L20.7437 25.9931C20.9059 25.9324 21.0434 25.8196 21.1344 25.6723C21.2255 25.525 21.2651 25.3516 21.2469 25.1794L21.6681 24.8263L21.9056 25.4788C21.9093 25.4896 21.9152 25.4996 21.9228 25.5081C21.9305 25.5167 21.9398 25.5236 21.9502 25.5284C21.9606 25.5333 21.9718 25.536 21.9833 25.5363C21.9948 25.5367 22.0062 25.5348 22.0169 25.5306L22.5706 25.3281C22.5815 25.3244 22.5915 25.3186 22.6 25.3109C22.6086 25.3033 22.6155 25.294 22.6203 25.2836C22.6251 25.2732 22.6278 25.2619 22.6282 25.2504C22.6286 25.239 22.6267 25.2276 22.6225 25.2169L22.2906 24.3044L22.4269 24.1888L22.945 24.9163C22.9712 24.9519 23.0069 24.9394 23.0044 24.895L22.9156 23.7794L23.0025 23.7063L23.4437 24.9175C23.4476 24.9283 23.4535 24.9381 23.4612 24.9466C23.4689 24.955 23.4782 24.9619 23.4885 24.9667C23.4989 24.9715 23.5101 24.9742 23.5215 24.9747C23.5329 24.9752 23.5443 24.9733 23.555 24.9694L24.1087 24.7669C24.1197 24.7635 24.1298 24.7578 24.1384 24.7503C24.1471 24.7429 24.1541 24.7337 24.159 24.7233C24.1639 24.713 24.1667 24.7018 24.1671 24.6903C24.1674 24.6789 24.1655 24.6675 24.1612 24.6569L23.625 23.1838L24.0769 22.8056L24.6819 24.4681C24.6856 24.4789 24.6915 24.4889 24.6992 24.4974C24.7069 24.5059 24.7162 24.5127 24.7265 24.5176C24.7369 24.5224 24.7482 24.5251 24.7596 24.5255C24.771 24.5259 24.7824 24.5241 24.7931 24.52L25.3062 24.3319C25.3171 24.3281 25.3272 24.3222 25.3357 24.3145C25.3443 24.3068 25.3512 24.2974 25.3561 24.287C25.361 24.2766 25.3638 24.2653 25.3642 24.2538C25.3647 24.2423 25.3628 24.2308 25.3587 24.22L24.665 22.3113L25.4356 21.6631L26.2487 23.8963C26.2569 23.9175 26.273 23.9348 26.2936 23.9445C26.3142 23.9541 26.3378 23.9555 26.3594 23.9481L26.8731 23.7613C26.8839 23.7575 26.8939 23.7516 26.9024 23.7439C26.9109 23.7362 26.9177 23.727 26.9226 23.7166C26.9274 23.7062 26.9301 23.695 26.9305 23.6835C26.9309 23.6721 26.9291 23.6607 26.925 23.65L26.0231 21.17L31.0737 16.9294C31.1669 17.025 31.2487 17.135 31.2981 17.27ZM3.21937 16.4519L19.4706 2.80563C20.0716 3.23531 20.766 3.51624 21.4967 3.62533C22.2273 3.73442 22.9735 3.66854 23.6737 3.43313C23.9311 3.52824 24.2056 3.56786 24.4794 3.54938L24.4812 3.55125C24.3375 4.13875 24.465 4.78625 24.8831 5.28313C25.0813 5.52037 25.3328 5.70731 25.6171 5.82865C25.9014 5.95 26.2104 6.00229 26.5187 5.98125L26.5206 5.98313C26.4461 6.28316 26.4436 6.59655 26.5133 6.89775C26.5829 7.19895 26.7227 7.47942 26.9214 7.71631C27.12 7.9532 27.3718 8.1398 27.6562 8.26089C27.9407 8.38199 28.2497 8.43415 28.5581 8.41313L28.56 8.415C28.4857 8.71502 28.4832 9.02837 28.5529 9.3295C28.6226 9.63064 28.7625 9.91105 28.9611 10.1479C29.1597 10.3848 29.4114 10.5714 29.6958 10.6925C29.9801 10.8136 30.2891 10.8659 30.5975 10.845L30.6125 10.8625C30.5554 11.1132 30.5476 11.3726 30.5894 11.6263C30.2245 12.2777 30.0222 13.0075 29.9996 13.7538C29.977 14.5001 30.1347 15.2408 30.4594 15.9131L14.2094 29.5575C13.4159 28.9904 12.4647 28.6859 11.4894 28.6869C10.7928 28.6875 10.1051 28.8433 9.47625 29.1431L2.805 21.1894C3.2887 20.5077 3.58206 19.7095 3.65489 18.8768C3.72772 18.0442 3.57739 17.2072 3.21937 16.4519ZM37.1025 26.055C36.5369 26.5422 36.0972 27.1587 35.8206 27.8521C35.544 28.5455 35.4388 29.2954 35.5137 30.0381L15.5806 37.2994C15.1068 36.6117 14.4581 36.0629 13.7015 35.7094C12.9449 35.356 12.1077 35.2108 11.2762 35.2888L9.52625 30.48C10.0835 30.0963 10.7405 29.8834 11.4169 29.8675L13.0369 34.3231C13.2143 34.8086 13.577 35.2038 14.0454 35.4222C14.5138 35.6406 15.0497 35.6643 15.5356 35.4881L34.3881 28.6212C34.8736 28.4437 35.2689 28.0809 35.4873 27.6124C35.7057 27.1439 35.7294 26.6078 35.5531 26.1219L32.2125 16.9375C32.1246 16.7021 31.9905 16.4866 31.8181 16.3038L31.9969 16.1538C31.8446 15.9688 31.7116 15.7688 31.6 15.5569C32.16 15.8131 32.7662 15.9731 33.4025 15.9894C33.6112 16.1656 33.8556 16.2975 34.1212 16.3738C34.0651 16.4585 34.0154 16.5479 33.9725 16.64C33.8629 16.8736 33.8007 17.1266 33.7896 17.3844C33.7784 17.6422 33.8185 17.8997 33.9075 18.1419C34.0137 18.4317 34.1865 18.6925 34.412 18.9033C34.6375 19.1142 34.9093 19.2691 35.2056 19.3556L35.2069 19.36C35.0353 19.6169 34.9263 19.9105 34.8889 20.2171C34.8514 20.5238 34.8865 20.835 34.9912 21.1256C35.0981 21.4152 35.2711 21.6758 35.4967 21.8866C35.7222 22.0973 35.9939 22.2524 36.29 22.3394L36.2912 22.3425C36.1196 22.5995 36.0108 22.8933 35.9736 23.2001C35.9364 23.5069 35.9717 23.8181 36.0769 24.1088C36.1835 24.3983 36.3564 24.659 36.5819 24.8697C36.8073 25.0805 37.0789 25.2355 37.375 25.3225L37.3831 25.3444C37.2453 25.5613 37.15 25.8024 37.1025 26.055Z" fill="#F7BB75"/>
<path d="M10.8007 27.6337C11.1334 28.0294 11.6094 28.277 12.1244 28.3221C12.6394 28.3672 13.1512 28.2062 13.5476 27.8744L28.9163 14.9687C29.3116 14.6357 29.5589 14.1596 29.604 13.6447C29.6491 13.1298 29.4883 12.6179 29.157 12.2212L22.8782 4.73312C22.5459 4.33738 22.07 4.08975 21.5552 4.04463C21.0404 3.99951 20.5287 4.1606 20.1326 4.4925L4.7626 17.3981C4.36726 17.7312 4.12003 18.2073 4.07504 18.7223C4.03006 19.2373 4.19099 19.7491 4.5226 20.1456L10.8007 27.6337ZM5.38947 18.1456L20.7588 5.23937C20.957 5.07361 21.2128 4.99316 21.4702 5.01565C21.7276 5.03814 21.9656 5.16174 22.132 5.35937L28.4101 12.8462C28.7557 13.2587 28.7013 13.875 28.2901 14.2206L12.9201 27.1269C12.7221 27.2926 12.4665 27.373 12.2094 27.3505C11.9522 27.328 11.7144 27.2044 11.5482 27.0069L5.26947 19.5187C5.10371 19.3206 5.02326 19.0648 5.04575 18.8074C5.06824 18.55 5.19185 18.312 5.38947 18.1456Z" fill="#F7BB75"/>
<path d="M14.8488 17.0119L14.5263 17.2904L13.9389 15.8758L14.3474 15.523L15.6615 16.31L15.339 16.5885L14.4092 15.9988L14.4006 16.0063L14.8488 17.0119ZM14.4135 16.6296L15.0198 16.1059L15.2129 16.3295L14.6066 16.8532L14.4135 16.6296ZM15.7675 16.2184L14.8167 15.1176L15.1156 14.8595L15.5 15.3045L15.515 15.2915L15.4617 14.5605L15.81 14.2597L15.8615 15.0711L16.7694 15.353L16.4125 15.6613L15.8087 15.462L15.8212 15.6765L16.0663 15.9603L15.7675 16.2184ZM16.8512 13.3604L17.8019 14.4612L17.5525 14.6766L16.6553 14.4418L16.6488 14.4474L17.1483 15.0258L16.8495 15.2839L15.8987 14.1831L16.1524 13.964L17.0414 14.2022L17.05 14.1948L16.5523 13.6186L16.8512 13.3604ZM14.6204 19.8519L13.6696 18.7511L14.463 18.0659L14.6709 18.3067L14.1764 18.7338L14.3398 18.923L14.7935 18.5311L15.0015 18.7719L14.5478 19.1638L14.7112 19.353L15.2036 18.9277L15.4116 19.1685L14.6204 19.8519ZM15.8074 18.8491C15.7547 18.8946 15.7007 18.9263 15.6454 18.944C15.5901 18.9611 15.5357 18.9619 15.4821 18.9462C15.4285 18.9305 15.378 18.8953 15.3307 18.8404C15.2917 18.7953 15.2661 18.7501 15.254 18.7049C15.2415 18.6594 15.2403 18.6145 15.2502 18.5702C15.2602 18.5259 15.2788 18.4827 15.3061 18.4403C15.3337 18.3977 15.3674 18.3564 15.4073 18.3163C15.4504 18.2728 15.4838 18.2365 15.5074 18.2073C15.5311 18.1775 15.5452 18.1525 15.5497 18.1324C15.5538 18.1119 15.5491 18.0937 15.5355 18.078L15.5336 18.0758C15.5151 18.0543 15.4926 18.0449 15.4662 18.0477C15.4398 18.0505 15.4137 18.063 15.3879 18.0853C15.3596 18.1097 15.3419 18.136 15.3348 18.164C15.3278 18.1913 15.3335 18.2193 15.3519 18.2478L15.0788 18.4836C15.0391 18.4304 15.0151 18.3704 15.0069 18.3037C14.9987 18.2363 15.0111 18.1662 15.0439 18.0934C15.0765 18.0202 15.1338 17.9482 15.2158 17.8773C15.2749 17.8263 15.334 17.7874 15.393 17.7609C15.4517 17.7339 15.5082 17.7186 15.5626 17.7149C15.6166 17.7108 15.6664 17.7178 15.7121 17.7359C15.7578 17.7533 15.7972 17.7812 15.8303 17.8195L16.3187 18.385L16.0414 18.6245L15.9411 18.5084L15.9347 18.514C15.9448 18.5591 15.9462 18.6013 15.939 18.6407C15.9321 18.6798 15.9173 18.7167 15.8946 18.7513C15.8723 18.7856 15.8433 18.8182 15.8074 18.8491ZM15.7426 18.5785C15.7652 18.559 15.7823 18.5361 15.794 18.5098C15.806 18.4831 15.8107 18.4556 15.8081 18.4272C15.8054 18.3988 15.7933 18.3721 15.7716 18.347L15.7122 18.2782C15.7071 18.2882 15.7013 18.2985 15.6948 18.3092C15.6887 18.3194 15.6817 18.3302 15.6739 18.3414C15.6663 18.3522 15.658 18.3635 15.6487 18.3753C15.6398 18.3867 15.6302 18.3984 15.62 18.4104C15.6001 18.4338 15.5864 18.456 15.5788 18.4769C15.5713 18.4972 15.5691 18.5163 15.5721 18.5343C15.5752 18.5517 15.583 18.5675 15.5953 18.5818C15.6151 18.6048 15.6384 18.6154 15.665 18.6136C15.6917 18.6119 15.7175 18.6002 15.7426 18.5785ZM16.4605 18.2625L15.7474 17.4369L16.0355 17.1881L16.1711 17.3451L16.1797 17.3376C16.1446 17.2666 16.1317 17.2035 16.1411 17.1485C16.1509 17.0932 16.1778 17.0465 16.2219 17.0084C16.2348 16.9972 16.2484 16.9873 16.2628 16.9786C16.2773 16.9693 16.292 16.9613 16.3069 16.9547L16.5255 17.2078C16.5065 17.2155 16.4852 17.2274 16.4615 17.2434C16.4378 17.2595 16.4183 17.2742 16.4029 17.2875C16.3739 17.3126 16.3534 17.3418 16.3416 17.3752C16.3298 17.4079 16.3275 17.4418 16.3347 17.4769C16.3415 17.5116 16.3586 17.5448 16.3858 17.5763L16.7572 18.0063L16.4605 18.2625ZM17.0124 16.9751L17.4135 17.4395L17.1168 17.6957L16.4037 16.8701L16.6854 16.6269L16.8209 16.7838L16.8295 16.7764C16.8022 16.7086 16.7983 16.6403 16.8178 16.5716C16.8376 16.5025 16.8778 16.4419 16.9384 16.3896C16.9968 16.3391 17.0591 16.3088 17.1253 16.2985C17.1916 16.2876 17.2566 16.2952 17.3205 16.3213C17.3848 16.3472 17.4425 16.3902 17.4939 16.4503L17.9488 16.9771L17.6521 17.2333L17.251 16.7689C17.2161 16.7278 17.178 16.7047 17.1368 16.6996C17.0959 16.6943 17.0568 16.7077 17.0195 16.7399C16.9951 16.761 16.9785 16.7847 16.9695 16.8113C16.9605 16.8372 16.9597 16.8641 16.9671 16.8922C16.9741 16.9199 16.9892 16.9475 17.0124 16.9751ZM18.0953 16.8506L17.3822 16.025L17.6789 15.7687L18.392 16.5943L18.0953 16.8506ZM17.4563 15.8108C17.4162 15.8455 17.3703 15.862 17.3187 15.8602C17.2672 15.8584 17.2253 15.8389 17.1931 15.8017C17.1609 15.7644 17.1477 15.7201 17.1535 15.6688C17.1592 15.6176 17.1822 15.5746 17.2223 15.5399C17.2628 15.505 17.3087 15.4885 17.3599 15.4906C17.4114 15.4923 17.4533 15.5118 17.4855 15.5491C17.5177 15.5864 17.5309 15.6307 17.5251 15.6819C17.5197 15.7329 17.4968 15.7759 17.4563 15.8108ZM18.4388 15.7431L18.8399 16.2075L18.5432 16.4637L17.8301 15.6381L18.1117 15.3949L18.2473 15.5518L18.2559 15.5444C18.2286 15.4766 18.2247 15.4083 18.2442 15.3396C18.264 15.2706 18.3042 15.2099 18.3648 15.1576C18.4232 15.1071 18.4855 15.0768 18.5517 15.0665C18.618 15.0556 18.683 15.0632 18.7469 15.0894C18.8112 15.1152 18.8689 15.1582 18.9203 15.2183L19.3752 15.7451L19.0785 16.0014L18.6774 15.537C18.6425 15.4958 18.6044 15.4727 18.5631 15.4677C18.5222 15.4623 18.4832 15.4758 18.4459 15.5079C18.4215 15.529 18.4048 15.5528 18.3959 15.5793C18.3869 15.6052 18.3861 15.6321 18.3935 15.6602C18.4005 15.6879 18.4156 15.7155 18.4388 15.7431ZM20.2017 15.6019C20.1189 15.6733 20.0378 15.7228 19.9582 15.7502C19.8793 15.7777 19.8058 15.7849 19.7376 15.7719C19.67 15.7589 19.6114 15.7275 19.5617 15.6779L19.8476 15.4309C19.8656 15.446 19.885 15.454 19.9058 15.4548C19.9265 15.4557 19.9479 15.4507 19.9698 15.4399C19.9924 15.4291 20.015 15.414 20.0376 15.3945C20.0759 15.3614 20.0996 15.3247 20.1086 15.2844C20.1179 15.2438 20.1016 15.1991 20.0595 15.1503L19.9388 15.0106L19.9302 15.018C19.9436 15.0553 19.9477 15.0933 19.9425 15.1322C19.937 15.1708 19.9231 15.2087 19.9009 15.246C19.8784 15.283 19.8485 15.3175 19.8113 15.3497C19.7525 15.4005 19.6866 15.4336 19.6136 15.4491C19.541 15.4642 19.4643 15.4551 19.3835 15.4217C19.3031 15.3879 19.2217 15.3234 19.1394 15.2281C19.0533 15.1285 18.9988 15.0342 18.9757 14.9452C18.9531 14.8559 18.9537 14.7756 18.9778 14.7042C19.0021 14.6324 19.0416 14.573 19.096 14.526C19.1369 14.4907 19.1789 14.4669 19.2221 14.4546C19.265 14.442 19.307 14.4385 19.3482 14.4442C19.3891 14.4496 19.427 14.4616 19.4619 14.4802L19.4684 14.4747L19.344 14.3306L19.6407 14.0744L20.3519 14.8978C20.4122 14.9677 20.4454 15.0426 20.4513 15.1226C20.4578 15.2026 20.4396 15.2837 20.3967 15.3659C20.3538 15.448 20.2888 15.5267 20.2017 15.6019ZM19.7389 15.0443C19.7662 15.0208 19.7829 14.9932 19.7893 14.9614C19.7957 14.929 19.7919 14.8941 19.7778 14.8568C19.7638 14.8189 19.7395 14.7798 19.7048 14.7397C19.6695 14.6988 19.634 14.6686 19.5981 14.6488C19.5624 14.6284 19.528 14.619 19.495 14.6206C19.462 14.6216 19.4319 14.6338 19.4047 14.6573C19.3774 14.6808 19.361 14.7088 19.3552 14.7413C19.3495 14.7731 19.3542 14.8082 19.3692 14.8466C19.3842 14.8843 19.4094 14.9235 19.4447 14.9644C19.4799 15.0052 19.515 15.0357 19.5498 15.0557C19.5846 15.075 19.618 15.084 19.65 15.0826C19.682 15.0806 19.7117 15.0678 19.7389 15.0443Z" fill="#F7BB75"/>
</svg>
