<svg width="44" height="44" viewBox="0 0 44 44" fill="none" xmlns="http://www.w3.org/2000/svg">
<g clip-path="url(#clip0_359_420)">
<path d="M37.5345 36.7456C46.0396 28.2482 46.0396 14.4711 37.5345 5.97364C29.0293 -2.52381 15.2398 -2.52381 6.73463 5.97364C-1.77051 14.4711 -1.77051 28.2482 6.73463 36.7456C15.2398 45.2431 29.0293 45.2431 37.5345 36.7456Z" fill="url(#paint0_radial_359_420)"/>
<path d="M37.1915 36.403C45.5072 28.0948 45.5072 14.6245 37.1915 6.31625C28.8757 -1.99198 15.3932 -1.99197 7.07749 6.31626C-1.23825 14.6245 -1.23825 28.0948 7.07749 36.403C15.3932 44.7112 28.8757 44.7112 37.1915 36.403Z" fill="#070335"/>
<g style="mix-blend-mode:multiply">
<path d="M22.1455 41.4334C22.083 41.4338 22.0211 41.4217 21.9633 41.398C21.9055 41.3742 21.853 41.3393 21.8089 41.2952C21.7647 41.251 21.7297 41.1986 21.7059 41.1409C21.6822 41.0832 21.6701 41.0213 21.6704 40.9589C21.6703 40.8965 21.6825 40.8347 21.7063 40.7771C21.7301 40.7194 21.7651 40.6671 21.8092 40.623C21.8534 40.5788 21.9058 40.5439 21.9635 40.5201C22.0212 40.4963 22.083 40.4841 22.1455 40.4843C22.2079 40.4841 22.2697 40.4963 22.3274 40.5201C22.3851 40.5439 22.4376 40.5788 22.4817 40.6229C22.5258 40.667 22.5608 40.7194 22.5846 40.7771C22.6084 40.8347 22.6206 40.8965 22.6205 40.9589C22.6205 41.085 22.5705 41.2059 22.4815 41.2952C22.3925 41.3845 22.2716 41.4349 22.1455 41.4354V41.4334Z" fill="url(#paint1_radial_359_420)"/>
<path d="M16.9469 40.7587C16.8864 40.7428 16.8297 40.7152 16.78 40.6773C16.7303 40.6395 16.6885 40.5922 16.6572 40.5382C16.6258 40.4841 16.6054 40.4245 16.5972 40.3626C16.5889 40.3007 16.593 40.2377 16.6092 40.1774C16.6417 40.0557 16.7212 39.9517 16.8303 39.8885C16.9393 39.8253 17.0691 39.8078 17.191 39.8401C17.3128 39.8727 17.4166 39.9522 17.4799 40.0611C17.5432 40.17 17.5607 40.2995 17.5287 40.4213C17.5016 40.5225 17.4419 40.6119 17.3587 40.6757C17.2756 40.7394 17.1737 40.774 17.0689 40.774C17.0277 40.7745 16.9866 40.7694 16.9469 40.7587Z" fill="url(#paint2_radial_359_420)"/>
<path d="M26.762 40.4175C26.7292 40.2957 26.7461 40.1658 26.8091 40.0565C26.872 39.9471 26.9759 39.8672 27.0978 39.8343C27.22 39.8023 27.3498 39.8198 27.4591 39.883C27.5685 39.9462 27.6484 40.0499 27.6816 40.1717C27.7136 40.2935 27.696 40.423 27.6328 40.532C27.5695 40.6409 27.4656 40.7204 27.3439 40.753C27.3041 40.7637 27.263 40.7689 27.2218 40.7683C27.1172 40.7683 27.0156 40.734 26.9325 40.6706C26.8494 40.6073 26.7895 40.5183 26.762 40.4175Z" fill="url(#paint3_radial_359_420)"/>
<path d="M12.0976 38.7556H12.0995C11.9901 38.6925 11.9102 38.5886 11.8773 38.4668C11.8444 38.345 11.8612 38.2151 11.924 38.1056C11.9873 37.9965 12.0914 37.917 12.2133 37.8845C12.3353 37.852 12.4652 37.8691 12.5745 37.9321C12.6837 37.9954 12.7634 38.0994 12.7959 38.2212C12.8285 38.3431 12.8112 38.4729 12.7481 38.5821C12.706 38.654 12.6458 38.7136 12.5736 38.7551C12.5013 38.7966 12.4194 38.8184 12.336 38.8185C12.2525 38.8179 12.1705 38.7963 12.0976 38.7556Z" fill="url(#paint4_radial_359_420)"/>
<path d="M31.5389 38.5706C31.5076 38.5167 31.4874 38.4572 31.4792 38.3954C31.471 38.3336 31.4751 38.2709 31.4912 38.2107C31.5074 38.1505 31.5352 38.0941 31.5732 38.0446C31.6111 37.9952 31.6585 37.9538 31.7125 37.9226C31.7663 37.8913 31.8258 37.8708 31.8876 37.8625C31.9493 37.8541 32.0121 37.858 32.0724 37.874C32.1326 37.8899 32.1891 37.9176 32.2387 37.9553C32.2882 37.9931 32.3298 38.0403 32.3611 38.0941C32.4246 38.2031 32.4422 38.3328 32.41 38.4547C32.3778 38.5766 32.2984 38.6807 32.1894 38.7441C32.117 38.7862 32.0347 38.8086 31.9509 38.8089C31.8674 38.8089 31.7852 38.7868 31.7129 38.745C31.6405 38.7032 31.5805 38.643 31.5389 38.5706Z" fill="url(#paint5_radial_359_420)"/>
<path d="M7.93692 35.5649C7.84802 35.4759 7.7981 35.3552 7.7981 35.2294C7.7981 35.1037 7.84802 34.983 7.93692 34.894C7.98101 34.8496 8.03346 34.8144 8.09125 34.7903C8.14903 34.7663 8.21101 34.7539 8.27361 34.7539C8.3362 34.7539 8.39818 34.7663 8.45597 34.7903C8.51375 34.8144 8.56621 34.8496 8.6103 34.894C8.6992 34.983 8.74912 35.1037 8.74912 35.2294C8.74912 35.3552 8.6992 35.4759 8.6103 35.5649C8.56627 35.609 8.51395 35.644 8.45633 35.6679C8.39872 35.6918 8.33695 35.7041 8.27458 35.704C8.21189 35.7043 8.14977 35.6921 8.09182 35.6682C8.03386 35.6443 7.98121 35.6092 7.93692 35.5649Z" fill="url(#paint6_radial_359_420)"/>
<path d="M35.6729 35.5516C35.5841 35.4621 35.5342 35.3412 35.5342 35.2152C35.5342 35.0891 35.5841 34.9682 35.6729 34.8787C35.7625 34.7899 35.8835 34.7401 36.0097 34.7401C36.1358 34.7401 36.2569 34.7899 36.3464 34.8787C36.4353 34.9682 36.4851 35.0891 36.4851 35.2152C36.4851 35.3412 36.4353 35.4621 36.3464 35.5516C36.3021 35.5959 36.2494 35.631 36.1915 35.6549C36.1335 35.6787 36.0714 35.6909 36.0087 35.6907C35.9463 35.6907 35.8846 35.6784 35.827 35.6546C35.7693 35.6307 35.717 35.5957 35.6729 35.5516Z" fill="url(#paint7_radial_359_420)"/>
<path d="M4.73953 31.4137C4.70813 31.3597 4.68772 31.3 4.67946 31.238C4.6712 31.1761 4.67525 31.1131 4.69137 31.0527C4.7075 30.9924 4.73539 30.9358 4.77345 30.8862C4.8115 30.8366 4.85898 30.795 4.91315 30.7637C4.96713 30.7325 5.02674 30.7123 5.08856 30.7041C5.15038 30.696 5.2132 30.7001 5.27344 30.7162C5.33368 30.7323 5.39015 30.7601 5.43962 30.798C5.48909 30.836 5.53059 30.8833 5.56175 30.9372C5.59336 30.9911 5.614 31.0507 5.62248 31.1126C5.63095 31.1745 5.6271 31.2374 5.61115 31.2978C5.59519 31.3582 5.56745 31.4149 5.52951 31.4645C5.49157 31.5141 5.44418 31.5558 5.39007 31.5871C5.31762 31.6289 5.23529 31.6506 5.15161 31.65C5.06818 31.6504 4.98613 31.6287 4.91377 31.5872C4.84141 31.5457 4.7813 31.4859 4.73953 31.4137Z" fill="url(#paint8_radial_359_420)"/>
<path d="M38.8913 31.5699C38.8371 31.5388 38.7896 31.4972 38.7515 31.4476C38.7134 31.398 38.6855 31.3414 38.6694 31.281C38.6532 31.2206 38.6492 31.1576 38.6575 31.0957C38.6658 31.0337 38.6863 30.974 38.7178 30.92H38.7158C38.7792 30.8109 38.8833 30.7315 39.0052 30.699C39.1272 30.6665 39.257 30.6836 39.3664 30.7466C39.4755 30.8099 39.5551 30.9139 39.5876 31.0357C39.6201 31.1575 39.603 31.2873 39.5399 31.3965C39.4982 31.4687 39.4381 31.5285 39.3657 31.57C39.2934 31.6116 39.2113 31.6332 39.1279 31.6329C39.0449 31.6326 38.9634 31.6109 38.8913 31.5699Z" fill="url(#paint9_radial_359_420)"/>
<path d="M2.72682 26.5744C2.71056 26.5142 2.70636 26.4514 2.71445 26.3896C2.72253 26.3277 2.74275 26.2681 2.77394 26.2141C2.80512 26.1601 2.84667 26.1128 2.89619 26.0749C2.94572 26.037 3.00225 26.0092 3.06254 25.9931C3.12279 25.9767 3.18569 25.9724 3.24761 25.9805C3.30954 25.9885 3.36926 26.0087 3.42334 26.0398C3.47743 26.071 3.52481 26.1126 3.56275 26.1621C3.6007 26.2116 3.62846 26.2682 3.64444 26.3285C3.67728 26.4503 3.66035 26.5802 3.59738 26.6896C3.53441 26.7989 3.43056 26.8788 3.30864 26.9117C3.26805 26.9216 3.22644 26.9267 3.18466 26.927C3.08009 26.927 2.97846 26.8924 2.89564 26.8286C2.81282 26.7648 2.75346 26.6754 2.72682 26.5744Z" fill="url(#paint10_radial_359_420)"/>
<path d="M40.9668 26.8908C40.8451 26.8581 40.7413 26.7786 40.678 26.6697C40.6147 26.5608 40.5972 26.4312 40.6291 26.3094C40.6619 26.1878 40.7414 26.0841 40.8505 26.0209C40.9595 25.9577 41.0891 25.9401 41.211 25.9721C41.3328 26.0047 41.4366 26.0842 41.4999 26.1932C41.5632 26.3021 41.5807 26.4316 41.5487 26.5534C41.5216 26.6546 41.4619 26.744 41.3788 26.8078C41.2956 26.8715 41.1937 26.9061 41.0889 26.9061C41.0477 26.9066 41.0066 26.9015 40.9668 26.8908Z" fill="url(#paint11_radial_359_420)"/>
<path d="M2.04199 21.3806C2.042 21.2547 2.09204 21.134 2.18112 21.045C2.27019 20.956 2.391 20.906 2.51697 20.906C2.5794 20.9059 2.64123 20.918 2.69894 20.9418C2.75664 20.9656 2.80907 21.0006 2.85321 21.0447C2.89735 21.0888 2.93234 21.1411 2.95616 21.1988C2.97999 21.2564 2.99218 21.3182 2.99203 21.3806C2.99208 21.5066 2.94211 21.6276 2.85306 21.7169C2.76401 21.8062 2.64315 21.8566 2.51697 21.8571C2.3908 21.8566 2.26995 21.8062 2.18092 21.7169C2.09188 21.6276 2.04192 21.5066 2.04199 21.3806Z" fill="url(#paint12_radial_359_420)"/>
<path d="M41.276 21.3596C41.2756 21.3526 41.2763 21.3456 41.2779 21.3387C41.2763 21.3318 41.2756 21.3247 41.276 21.3177C41.2759 21.1916 41.3259 21.0706 41.4149 20.9813C41.504 20.892 41.6249 20.8416 41.751 20.8412C41.8136 20.841 41.8755 20.8531 41.9333 20.8769C41.9912 20.9007 42.0437 20.9356 42.088 20.9797C42.1323 21.0238 42.1675 21.0761 42.1915 21.1338C42.2155 21.1915 42.2279 21.2533 42.228 21.3158V21.3387V21.3596C42.2279 21.4855 42.1779 21.6062 42.0888 21.6952C41.9997 21.7842 41.8789 21.8342 41.7529 21.8342C41.6904 21.8344 41.6284 21.8222 41.5706 21.7985C41.5128 21.7747 41.4602 21.7398 41.4159 21.6957C41.3716 21.6517 41.3365 21.5993 41.3124 21.5416C41.2884 21.4839 41.276 21.4221 41.276 21.3596Z" fill="url(#paint13_radial_359_420)"/>
<path d="M3.0531 16.7681C2.99272 16.7521 2.93607 16.7243 2.88642 16.6865C2.83676 16.6486 2.79506 16.6013 2.7637 16.5473C2.73234 16.4933 2.71194 16.4337 2.70366 16.3718C2.69538 16.31 2.69938 16.2471 2.71544 16.1868C2.73135 16.1264 2.75905 16.0697 2.79693 16.02C2.83482 15.9704 2.88215 15.9287 2.9362 15.8973C2.99026 15.866 3.04998 15.8456 3.11194 15.8374C3.1739 15.8292 3.23687 15.8332 3.29725 15.8494C3.41913 15.8819 3.52313 15.9613 3.58644 16.0703C3.64974 16.1793 3.66718 16.309 3.63491 16.4308C3.60751 16.5317 3.54769 16.6209 3.46464 16.6846C3.38159 16.7483 3.27992 16.783 3.17522 16.7833C3.13406 16.783 3.09308 16.7778 3.0531 16.7681Z" fill="url(#paint14_radial_359_420)"/>
<path d="M40.6197 16.3697C40.6032 16.3097 40.5987 16.2469 40.6065 16.1851C40.6144 16.1233 40.6344 16.0636 40.6654 16.0096C40.6965 15.9556 40.7379 15.9082 40.7874 15.8702C40.8368 15.8323 40.8933 15.8045 40.9536 15.7884C41.0755 15.7556 41.2055 15.7725 41.315 15.8354C41.4244 15.8983 41.5044 16.002 41.5373 16.1238C41.5699 16.2454 41.5528 16.375 41.4899 16.484C41.4269 16.593 41.3232 16.6726 41.2015 16.7052C41.1612 16.7165 41.1195 16.7223 41.0776 16.7224C40.9729 16.7226 40.8712 16.6881 40.7883 16.6243C40.7054 16.5604 40.6461 16.4709 40.6197 16.3697Z" fill="url(#paint15_radial_359_420)"/>
<path d="M4.89217 11.9917C4.78303 11.9284 4.70346 11.8244 4.67091 11.7026C4.63837 11.5808 4.6555 11.451 4.71855 11.3418C4.74971 11.2878 4.79122 11.2405 4.84069 11.2026C4.89016 11.1646 4.94663 11.1368 5.00686 11.1207C5.0671 11.1046 5.12993 11.1005 5.19175 11.1087C5.25357 11.1168 5.31317 11.1371 5.36716 11.1683C5.42143 11.1992 5.46905 11.2405 5.50728 11.2898C5.54551 11.3391 5.57359 11.3956 5.5899 11.4558C5.60622 11.516 5.61044 11.5789 5.60233 11.6408C5.59421 11.7026 5.57393 11.7623 5.54264 11.8163C5.501 11.8887 5.44098 11.9488 5.36864 11.9907C5.29631 12.0325 5.21421 12.0545 5.13063 12.0545C5.04709 12.0542 4.96501 12.0326 4.89217 11.9917Z" fill="url(#paint16_radial_359_420)"/>
<path d="M38.6967 11.7648C38.6653 11.7109 38.6448 11.6513 38.6364 11.5895C38.628 11.5276 38.6319 11.4647 38.6478 11.4044C38.6638 11.344 38.6915 11.2874 38.7293 11.2377C38.7672 11.1881 38.8144 11.1464 38.8684 11.115C38.9775 11.0516 39.1072 11.0341 39.2292 11.0663C39.3512 11.0984 39.4554 11.1776 39.5189 11.2865C39.5823 11.3954 39.5999 11.5251 39.5677 11.6469C39.5355 11.7688 39.4562 11.8729 39.3473 11.9364C39.2749 11.9786 39.1926 12.0009 39.1088 12.0012C39.0254 12.0012 38.9436 11.9793 38.8713 11.9378C38.799 11.8964 38.7388 11.8367 38.6967 11.7648Z" fill="url(#paint17_radial_359_420)"/>
<path d="M7.90809 7.85572C7.81919 7.7663 7.76929 7.64537 7.76929 7.51933C7.76929 7.39329 7.81919 7.27236 7.90809 7.18294C7.9523 7.13875 8.00479 7.1037 8.06256 7.07978C8.12033 7.05586 8.18225 7.04355 8.24479 7.04355C8.30732 7.04355 8.36924 7.05586 8.42701 7.07978C8.48478 7.1037 8.53727 7.13875 8.58148 7.18294C8.67038 7.27199 8.7203 7.39263 8.7203 7.5184C8.7203 7.64417 8.67038 7.76481 8.58148 7.85386C8.53716 7.89815 8.48451 7.93325 8.42656 7.95713C8.36861 7.981 8.3065 7.99319 8.24382 7.99299C8.11825 7.99287 7.99772 7.94359 7.90809 7.85572Z" fill="url(#paint18_radial_359_420)"/>
<path d="M35.6444 7.81188C35.5555 7.72244 35.5056 7.60152 35.5056 7.47549C35.5056 7.34946 35.5555 7.22854 35.6444 7.1391C35.6884 7.09491 35.7407 7.05984 35.7983 7.03592C35.8559 7.01199 35.9177 6.99967 35.9801 6.99967C36.0425 6.99967 36.1043 7.01199 36.1619 7.03592C36.2196 7.05984 36.2719 7.09491 36.3159 7.1391C36.3602 7.18295 36.3955 7.23512 36.4196 7.29261C36.4437 7.35009 36.4562 7.41178 36.4563 7.4741C36.4565 7.53643 36.4444 7.59818 36.4206 7.65581C36.3969 7.71344 36.3619 7.76581 36.3178 7.80992C36.2736 7.85449 36.221 7.88989 36.1631 7.9141C36.1051 7.93831 36.043 7.95086 35.9802 7.95101C35.8544 7.95018 35.7338 7.90025 35.6444 7.81188Z" fill="url(#paint19_radial_359_420)"/>
<path d="M11.8894 4.6346C11.858 4.58081 11.8376 4.52136 11.8292 4.45965C11.8209 4.39795 11.8248 4.33521 11.8407 4.27502C11.8567 4.21483 11.8843 4.15837 11.9222 4.10887C11.96 4.05938 12.0072 4.01782 12.0611 3.98658C12.115 3.955 12.1747 3.93438 12.2367 3.92591C12.2986 3.91744 12.3616 3.92128 12.4221 3.93722C12.4825 3.95316 12.5392 3.98088 12.5889 4.01879C12.6386 4.0567 12.6803 4.10405 12.7117 4.15811C12.775 4.26706 12.7926 4.39669 12.7604 4.51853C12.7282 4.64038 12.6489 4.74448 12.54 4.80799C12.4676 4.85017 12.3853 4.87254 12.3015 4.87285C12.2179 4.87282 12.1358 4.85078 12.0635 4.80896C11.9911 4.76713 11.9311 4.70699 11.8894 4.6346Z" fill="url(#paint20_radial_359_420)"/>
<path d="M31.6763 4.77755C31.567 4.71432 31.4874 4.61034 31.4548 4.48847C31.4223 4.36659 31.4395 4.23679 31.5027 4.12757C31.5338 4.07361 31.5753 4.02632 31.6248 3.98839C31.6743 3.95047 31.7307 3.92266 31.791 3.90655C31.8512 3.89044 31.914 3.88634 31.9758 3.8945C32.0377 3.90266 32.0973 3.92292 32.1513 3.95411C32.2054 3.98511 32.2529 4.02647 32.2911 4.07583C32.3292 4.1252 32.3572 4.18159 32.3736 4.24179C32.3899 4.30199 32.3941 4.36481 32.3861 4.42665C32.3781 4.4885 32.358 4.54816 32.3268 4.60222C32.2852 4.6746 32.2251 4.73473 32.1528 4.77656C32.0804 4.81838 31.9983 4.84043 31.9148 4.84047C31.8312 4.84013 31.7491 4.81847 31.6763 4.77755Z" fill="url(#paint21_radial_359_420)"/>
<path d="M16.5671 2.55328C16.5349 2.43171 16.5522 2.30237 16.6151 2.19346C16.678 2.08455 16.7815 2.00491 16.9029 1.9719C17.0248 1.93911 17.1548 1.95603 17.2643 2.01895C17.3737 2.08186 17.4537 2.18561 17.4867 2.30741C17.5195 2.42924 17.5026 2.55911 17.4396 2.66847C17.3766 2.77783 17.2728 2.85775 17.1509 2.89066C17.1102 2.90036 17.0687 2.90545 17.0269 2.90582C16.9221 2.90582 16.8202 2.87128 16.7371 2.80753C16.654 2.74379 16.5942 2.65442 16.5671 2.55328Z" fill="url(#paint22_radial_359_420)"/>
<path d="M27.0579 2.87344C26.936 2.84099 26.832 2.76156 26.7687 2.65257C26.7054 2.54359 26.6879 2.41395 26.7202 2.29213C26.7529 2.1705 26.8324 2.06674 26.9414 2.00352C27.0505 1.94031 27.1801 1.92278 27.302 1.95478C27.3625 1.97067 27.4192 1.99834 27.4689 2.03619C27.5186 2.07403 27.5603 2.12132 27.5917 2.17533C27.6231 2.22934 27.6435 2.28901 27.6517 2.35092C27.6599 2.41282 27.6558 2.47574 27.6397 2.53606C27.6131 2.6375 27.5535 2.72723 27.4703 2.79108C27.387 2.85493 27.2848 2.88927 27.1799 2.8887C27.1387 2.88915 27.0977 2.88402 27.0579 2.87344Z" fill="url(#paint23_radial_359_420)"/>
<path d="M21.6265 1.76037C21.6267 1.6344 21.6768 1.51363 21.7658 1.42438C21.8548 1.33513 21.9754 1.28462 22.1015 1.28386C22.2277 1.2838 22.3487 1.33372 22.4381 1.42267C22.5275 1.51162 22.578 1.63236 22.5785 1.75841C22.5787 1.82088 22.5665 1.88278 22.5427 1.94055C22.5189 1.99833 22.484 2.05085 22.4398 2.09511C22.3957 2.13937 22.3433 2.1745 22.2856 2.19848C22.2278 2.22247 22.1659 2.23485 22.1034 2.2349C21.9772 2.23496 21.8562 2.18504 21.7668 2.0961C21.6774 2.00715 21.6269 1.88642 21.6265 1.76037Z" fill="url(#paint24_radial_359_420)"/>
</g>
<path d="M22.4673 41.4668C22.4037 41.4671 22.3407 41.4548 22.2818 41.4306C22.223 41.4065 22.1696 41.3709 22.1246 41.3259C22.0796 41.281 22.044 41.2276 22.0198 41.1688C21.9956 41.11 21.9833 41.047 21.9836 40.9834C21.9835 40.9199 21.9959 40.857 22.0202 40.7983C22.0444 40.7395 22.08 40.6862 22.125 40.6413C22.1699 40.5963 22.2233 40.5607 22.282 40.5365C22.3408 40.5123 22.4037 40.4999 22.4673 40.5C22.5308 40.4998 22.5938 40.5122 22.6525 40.5365C22.7113 40.5607 22.7647 40.5963 22.8096 40.6413C22.8545 40.6862 22.8901 40.7395 22.9144 40.7983C22.9386 40.857 22.951 40.9199 22.9509 40.9834C22.9509 41.1118 22.9 41.235 22.8094 41.326C22.7188 41.4169 22.5957 41.4683 22.4673 41.4688V41.4668Z" fill="url(#paint25_radial_359_420)"/>
<path d="M16.5402 41.4532C16.4787 41.4369 16.4211 41.4087 16.3705 41.3701C16.32 41.3315 16.2775 41.2833 16.2456 41.2282C16.2137 41.1731 16.193 41.1122 16.1846 41.0491C16.1763 40.986 16.1804 40.9218 16.1968 40.8603C16.2299 40.7361 16.3107 40.6301 16.4216 40.5656C16.5325 40.501 16.6644 40.4833 16.7884 40.5161C16.9122 40.5494 17.0178 40.6305 17.0821 40.7416C17.1464 40.8527 17.1643 40.9848 17.1317 41.109C17.1042 41.2122 17.0435 41.3034 16.9589 41.3684C16.8744 41.4335 16.7708 41.4687 16.6642 41.4687C16.6224 41.4693 16.5806 41.4641 16.5402 41.4532Z" fill="url(#paint26_radial_359_420)"/>
<path d="M26.8362 41.1109C26.8029 40.9866 26.8201 40.8541 26.8841 40.7426C26.9481 40.631 27.0536 40.5495 27.1775 40.5159C27.3017 40.4833 27.4337 40.5012 27.5448 40.5656C27.6559 40.6301 27.7372 40.7359 27.7709 40.8601C27.8034 40.9844 27.7856 41.1165 27.7213 41.2276C27.657 41.3387 27.5514 41.4198 27.4277 41.4532C27.3872 41.4641 27.3454 41.4693 27.3036 41.4687C27.1973 41.4687 27.094 41.4337 27.0095 41.3691C26.9251 41.3044 26.8642 41.2137 26.8362 41.1109Z" fill="url(#paint27_radial_359_420)"/>
<path d="M11.585 39.4671H11.5869C11.4757 39.4028 11.3944 39.2969 11.361 39.1727C11.3275 39.0484 11.3446 38.916 11.4084 38.8043C11.4729 38.6931 11.5787 38.6121 11.7027 38.5789C11.8267 38.5458 11.9588 38.5632 12.0699 38.6275C12.181 38.692 12.262 38.798 12.2951 38.9223C12.3282 39.0465 12.3107 39.1789 12.2464 39.2902C12.2036 39.3635 12.1425 39.4243 12.069 39.4666C11.9955 39.5089 11.9122 39.5312 11.8275 39.5312C11.7425 39.5307 11.6591 39.5086 11.585 39.4671Z" fill="url(#paint28_radial_359_420)"/>
<path d="M31.7206 39.2885C31.6889 39.2335 31.6682 39.1728 31.6599 39.1099C31.6516 39.047 31.6558 38.983 31.6722 38.9217C31.6886 38.8603 31.7169 38.8029 31.7555 38.7525C31.7942 38.7021 31.8423 38.6599 31.8973 38.6281C31.9521 38.5962 32.0126 38.5754 32.0754 38.5669C32.1383 38.5583 32.2022 38.5623 32.2635 38.5786C32.3248 38.5948 32.3823 38.623 32.4327 38.6615C32.4831 38.7 32.5254 38.748 32.5572 38.8029C32.5892 38.8579 32.6101 38.9186 32.6186 38.9816C32.6271 39.0447 32.6232 39.1088 32.607 39.1703C32.5907 39.2318 32.5626 39.2895 32.5241 39.3401C32.4856 39.3907 32.4375 39.4332 32.3825 39.4652C32.3088 39.5082 32.2252 39.5309 32.1399 39.5312C32.0549 39.5312 31.9713 39.5088 31.8977 39.4662C31.8241 39.4235 31.763 39.3622 31.7206 39.2885Z" fill="url(#paint29_radial_359_420)"/>
<path d="M7.61654 35.5144C7.52612 35.4236 7.47534 35.3006 7.47534 35.1724C7.47534 35.0441 7.52612 34.9211 7.61654 34.8303C7.66138 34.7851 7.71472 34.7491 7.77349 34.7246C7.83226 34.7001 7.89529 34.6875 7.95895 34.6875C8.02261 34.6875 8.08564 34.7001 8.14441 34.7246C8.20318 34.7491 8.25652 34.7851 8.30136 34.8303C8.39178 34.9211 8.44255 35.0441 8.44255 35.1724C8.44255 35.3006 8.39178 35.4236 8.30136 35.5144C8.25658 35.5594 8.20337 35.5951 8.14478 35.6194C8.08619 35.6438 8.02338 35.6563 7.95995 35.6562C7.89619 35.6565 7.83302 35.6441 7.77408 35.6197C7.71513 35.5954 7.66159 35.5596 7.61654 35.5144Z" fill="url(#paint30_radial_359_420)"/>
<path d="M35.6658 35.5145C35.5754 35.4233 35.5247 35.3001 35.5247 35.1716C35.5247 35.0432 35.5754 34.9199 35.6658 34.8288C35.7568 34.7383 35.8799 34.6875 36.0083 34.6875C36.1366 34.6875 36.2597 34.7383 36.3508 34.8288C36.4411 34.9199 36.4919 35.0432 36.4919 35.1716C36.4919 35.3001 36.4411 35.4233 36.3508 35.5145C36.3057 35.5596 36.2521 35.5954 36.1932 35.6197C36.1342 35.644 36.0711 35.6565 36.0073 35.6562C35.9439 35.6563 35.881 35.6437 35.8224 35.6194C35.7638 35.5951 35.7106 35.5594 35.6658 35.5145Z" fill="url(#paint31_radial_359_420)"/>
<path d="M4.63901 31.5403C4.6071 31.4852 4.58636 31.4243 4.57796 31.3611C4.56957 31.2979 4.57369 31.2337 4.59008 31.1722C4.60647 31.1106 4.63482 31.0529 4.67351 31.0023C4.71219 30.9517 4.76044 30.9093 4.8155 30.8775C4.87037 30.8456 4.93096 30.825 4.99379 30.8167C5.05663 30.8083 5.12049 30.8125 5.18171 30.8289C5.24294 30.8454 5.30034 30.8737 5.35062 30.9124C5.40091 30.9511 5.44309 30.9993 5.47477 31.0544C5.5069 31.1093 5.52787 31.1701 5.53649 31.2332C5.54511 31.2963 5.54119 31.3605 5.52498 31.4221C5.50876 31.4837 5.48056 31.5414 5.442 31.5921C5.40343 31.6427 5.35527 31.6852 5.30027 31.7171C5.22663 31.7598 5.14294 31.7819 5.05789 31.7812C4.97308 31.7816 4.88968 31.7595 4.81613 31.7172C4.74257 31.6749 4.68147 31.6139 4.63901 31.5403Z" fill="url(#paint32_radial_359_420)"/>
<path d="M39.6357 31.7171C39.5806 31.6853 39.5322 31.6429 39.4934 31.5923C39.4547 31.5417 39.4263 31.484 39.4099 31.4224C39.3935 31.3608 39.3894 31.2966 39.3978 31.2334C39.4063 31.1703 39.4271 31.1094 39.4591 31.0543H39.4571C39.5216 30.9431 39.6276 30.862 39.7517 30.8289C39.8758 30.7958 40.0079 30.8132 40.1192 30.8775C40.2303 30.942 40.3113 31.0481 40.3444 31.1723C40.3775 31.2965 40.36 31.4288 40.2958 31.5402C40.2533 31.6138 40.1922 31.6748 40.1186 31.7172C40.0449 31.7595 39.9614 31.7816 39.8765 31.7812C39.7921 31.7809 39.7092 31.7588 39.6357 31.7171Z" fill="url(#paint33_radial_359_420)"/>
<path d="M2.65606 26.5781C2.63952 26.5167 2.63524 26.4527 2.64347 26.3897C2.6517 26.3267 2.67227 26.266 2.70401 26.2109C2.73575 26.1559 2.77803 26.1076 2.82844 26.069C2.87884 26.0303 2.93637 26.002 2.99773 25.9856C3.05905 25.969 3.12306 25.9646 3.18608 25.9728C3.2491 25.9809 3.30988 26.0015 3.36493 26.0333C3.41997 26.065 3.46819 26.1074 3.50681 26.1579C3.54543 26.2084 3.57368 26.266 3.58995 26.3275C3.62336 26.4517 3.60613 26.584 3.54204 26.6955C3.47796 26.807 3.37226 26.8884 3.24818 26.922C3.20687 26.932 3.16452 26.9372 3.12201 26.9375C3.01558 26.9375 2.91216 26.9022 2.82787 26.8372C2.74358 26.7722 2.68317 26.6811 2.65606 26.5781Z" fill="url(#paint34_radial_359_420)"/>
<path d="M41.6872 26.9219C41.5634 26.8885 41.4578 26.8074 41.3935 26.6963C41.3291 26.5852 41.3112 26.4531 41.3438 26.3288C41.3771 26.2047 41.458 26.0989 41.5689 26.0344C41.6798 25.97 41.8117 25.9521 41.9357 25.9847C42.0595 26.018 42.1652 26.0991 42.2295 26.2102C42.2939 26.3213 42.3117 26.4535 42.2792 26.5777C42.2516 26.6809 42.1908 26.7721 42.1063 26.8372C42.0217 26.9022 41.9181 26.9375 41.8115 26.9375C41.7695 26.938 41.7277 26.9328 41.6872 26.9219Z" fill="url(#paint35_radial_359_420)"/>
<path d="M1.67212 21.6084C1.67212 21.4802 1.72307 21.3572 1.81375 21.2666C1.90444 21.1759 2.02743 21.125 2.15568 21.125C2.21923 21.1248 2.28218 21.1372 2.34093 21.1615C2.39967 21.1857 2.45305 21.2213 2.49799 21.2662C2.54294 21.3111 2.57856 21.3645 2.60281 21.4232C2.62707 21.4819 2.63948 21.5448 2.63933 21.6084C2.63939 21.7368 2.58852 21.86 2.49786 21.951C2.4072 22.042 2.28414 22.0933 2.15568 22.0937C2.02722 22.0933 1.90419 22.0419 1.81355 21.951C1.7229 21.86 1.67204 21.7368 1.67212 21.6084Z" fill="url(#paint36_radial_359_420)"/>
<path d="M41.328 21.6308C41.3276 21.6239 41.3283 21.6171 41.33 21.6104C41.3283 21.6037 41.3276 21.5968 41.328 21.5899C41.3279 21.4669 41.3787 21.3489 41.4691 21.2617C41.5596 21.1746 41.6824 21.1254 41.8106 21.125C41.8741 21.1248 41.937 21.1367 41.9958 21.1599C42.0545 21.183 42.1079 21.2171 42.1529 21.2601C42.1979 21.3031 42.2336 21.3542 42.258 21.4105C42.2824 21.4668 42.295 21.5271 42.2951 21.588V21.6104V21.6308C42.2951 21.7536 42.2442 21.8713 42.1537 21.9582C42.0632 22.045 41.9404 22.0938 41.8125 22.0937C41.749 22.0939 41.686 22.0821 41.6273 22.0589C41.5685 22.0358 41.5151 22.0017 41.4701 21.9587C41.4251 21.9157 41.3894 21.8646 41.365 21.8083C41.3406 21.7521 41.328 21.6917 41.328 21.6308Z" fill="url(#paint37_radial_359_420)"/>
<path d="M2.99897 16.2657C2.93757 16.2494 2.87999 16.2211 2.8295 16.1825C2.77901 16.1439 2.73661 16.0957 2.70472 16.0406C2.67284 15.9856 2.65209 15.9248 2.64367 15.8617C2.63525 15.7986 2.63932 15.7345 2.65564 15.673C2.67183 15.6114 2.69999 15.5536 2.73851 15.503C2.77702 15.4523 2.82515 15.4098 2.88011 15.3778C2.93507 15.3459 2.99579 15.3251 3.05878 15.3167C3.12177 15.3083 3.1858 15.3125 3.24718 15.329C3.3711 15.3621 3.47685 15.4431 3.54122 15.5542C3.60558 15.6654 3.62331 15.7976 3.59051 15.9218C3.56265 16.0247 3.50182 16.1156 3.41739 16.1806C3.33295 16.2455 3.22957 16.2809 3.12313 16.2812C3.08128 16.2809 3.03962 16.2757 2.99897 16.2657Z" fill="url(#paint38_radial_359_420)"/>
<path d="M41.3451 15.9218C41.3283 15.8605 41.3237 15.7966 41.3317 15.7336C41.3397 15.6706 41.36 15.6098 41.3916 15.5547C41.4232 15.4996 41.4654 15.4513 41.5157 15.4126C41.566 15.3739 41.6235 15.3456 41.6848 15.3292C41.8088 15.2957 41.9411 15.313 42.0524 15.3771C42.1638 15.4412 42.2452 15.547 42.2787 15.6711C42.3118 15.7951 42.2944 15.9271 42.2304 16.0382C42.1663 16.1494 42.0608 16.2305 41.937 16.2638C41.896 16.2753 41.8535 16.2812 41.8109 16.2812C41.7044 16.2815 41.6009 16.2463 41.5166 16.1813C41.4323 16.1162 41.372 16.0249 41.3451 15.9218Z" fill="url(#paint39_radial_359_420)"/>
<path d="M4.81503 11.3734C4.70409 11.3089 4.62321 11.2028 4.59013 11.0786C4.55704 10.9543 4.57445 10.822 4.63853 10.7106C4.67021 10.6556 4.71239 10.6073 4.76268 10.5687C4.81296 10.53 4.87036 10.5016 4.93159 10.4852C4.99282 10.4688 5.05668 10.4646 5.11951 10.4729C5.18235 10.4812 5.24294 10.5019 5.2978 10.5337C5.35297 10.5652 5.40139 10.6073 5.44025 10.6576C5.47911 10.7079 5.50765 10.7655 5.52424 10.8269C5.54082 10.8883 5.54511 10.9524 5.53687 11.0155C5.52862 11.0786 5.50801 11.1395 5.4762 11.1945C5.43387 11.2684 5.37287 11.3297 5.29934 11.3724C5.22582 11.415 5.14237 11.4375 5.05741 11.4375C4.97249 11.4372 4.88906 11.4151 4.81503 11.3734Z" fill="url(#paint40_radial_359_420)"/>
<path d="M39.4593 11.1966C39.4273 11.1417 39.4065 11.0809 39.3979 11.0179C39.3894 10.9549 39.3934 10.8908 39.4096 10.8293C39.4258 10.7678 39.4539 10.7101 39.4924 10.6595C39.5309 10.6089 39.5789 10.5664 39.6338 10.5344C39.7447 10.4699 39.8766 10.452 40.0006 10.4848C40.1246 10.5176 40.2306 10.5983 40.2952 10.7092C40.3597 10.8202 40.3775 10.9523 40.3447 11.0765C40.312 11.2007 40.2314 11.3067 40.1207 11.3715C40.047 11.4144 39.9634 11.4372 39.8782 11.4375C39.7935 11.4374 39.7102 11.4152 39.6367 11.3729C39.5632 11.3307 39.502 11.2699 39.4593 11.1966Z" fill="url(#paint41_radial_359_420)"/>
<path d="M7.61654 7.42244C7.5261 7.3312 7.47534 7.20782 7.47534 7.07921C7.47534 6.9506 7.5261 6.82721 7.61654 6.73598C7.66149 6.69089 7.71487 6.65512 7.77363 6.63071C7.83238 6.60631 7.89535 6.59375 7.95895 6.59375C8.02255 6.59375 8.08552 6.60631 8.14427 6.63071C8.20303 6.65512 8.25641 6.69089 8.30136 6.73598C8.39178 6.82683 8.44255 6.94992 8.44255 7.07825C8.44255 7.20658 8.39178 7.32967 8.30136 7.42053C8.25629 7.46573 8.20275 7.50154 8.14381 7.52591C8.08487 7.55027 8.02171 7.56271 7.95795 7.5625C7.83025 7.56238 7.70767 7.5121 7.61654 7.42244Z" fill="url(#paint42_radial_359_420)"/>
<path d="M35.6658 7.42082C35.5754 7.32974 35.5247 7.20661 35.5247 7.07827C35.5247 6.94994 35.5754 6.82681 35.6658 6.73573C35.7106 6.69073 35.7638 6.65502 35.8224 6.63066C35.8811 6.60629 35.9439 6.59375 36.0074 6.59375C36.0709 6.59375 36.1337 6.60629 36.1923 6.63066C36.251 6.65502 36.3042 6.69073 36.349 6.73573C36.3941 6.78038 36.4299 6.8335 36.4544 6.89204C36.479 6.95058 36.4917 7.01339 36.4919 7.07686C36.4921 7.14033 36.4797 7.20321 36.4555 7.26189C36.4313 7.32057 36.3958 7.3739 36.351 7.41882C36.306 7.4642 36.2525 7.50026 36.1935 7.52491C36.1346 7.54957 36.0713 7.56234 36.0074 7.5625C35.8794 7.56166 35.7568 7.51081 35.6658 7.42082Z" fill="url(#paint43_radial_359_420)"/>
<path d="M11.4098 4.41364C11.3779 4.35886 11.3571 4.29832 11.3486 4.23549C11.3401 4.17265 11.3441 4.10876 11.3603 4.04747C11.3765 3.98617 11.4046 3.92868 11.4431 3.87828C11.4815 3.82788 11.5295 3.78556 11.5844 3.75375C11.6392 3.72159 11.6999 3.70059 11.7629 3.69196C11.8259 3.68333 11.8899 3.68725 11.9514 3.70348C12.0129 3.71971 12.0706 3.74794 12.1211 3.78654C12.1716 3.82514 12.214 3.87336 12.2459 3.92842C12.3103 4.03936 12.3282 4.17136 12.2954 4.29543C12.2627 4.41951 12.1821 4.52551 12.0713 4.59018C11.9977 4.63315 11.9141 4.65594 11.8288 4.65625C11.7438 4.65622 11.6603 4.63378 11.5868 4.59119C11.5132 4.54859 11.4522 4.48735 11.4098 4.41364Z" fill="url(#paint44_radial_359_420)"/>
<path d="M31.8973 4.59211C31.7862 4.52763 31.7052 4.4216 31.6721 4.29733C31.639 4.17306 31.6565 4.0407 31.7208 3.92933C31.7524 3.87431 31.7946 3.82608 31.8449 3.7874C31.8952 3.74873 31.9526 3.72037 32.0139 3.70394C32.0751 3.68751 32.139 3.68334 32.2019 3.69167C32.2647 3.69999 32.3253 3.72065 32.3802 3.75245C32.4353 3.78406 32.4836 3.82624 32.5223 3.87657C32.5611 3.9269 32.5896 3.98441 32.6062 4.04579C32.6228 4.10717 32.6271 4.17122 32.619 4.23428C32.6108 4.29735 32.5904 4.35818 32.5587 4.41331C32.5163 4.48712 32.4553 4.54844 32.3817 4.59109C32.3082 4.63374 32.2247 4.65621 32.1397 4.65625C32.0548 4.65591 31.9713 4.63383 31.8973 4.59211Z" fill="url(#paint45_radial_359_420)"/>
<path d="M16.1965 2.35935C16.1638 2.23541 16.1814 2.10356 16.2453 1.99254C16.3092 1.88151 16.4144 1.80033 16.5378 1.76668C16.6617 1.73325 16.7938 1.75049 16.905 1.81462C17.0162 1.87876 17.0975 1.98453 17.131 2.10869C17.1643 2.23289 17.1471 2.36528 17.0832 2.47677C17.0192 2.58826 16.9136 2.66973 16.7898 2.70328C16.7485 2.71319 16.7062 2.71838 16.6638 2.71875C16.5573 2.71876 16.4537 2.68353 16.3693 2.61855C16.2848 2.55356 16.224 2.46245 16.1965 2.35935Z" fill="url(#paint46_radial_359_420)"/>
<path d="M27.1789 2.70315C27.055 2.67004 26.9493 2.58901 26.885 2.47782C26.8206 2.36664 26.8029 2.2344 26.8357 2.11012C26.8689 1.98603 26.9498 1.88017 27.0606 1.81568C27.1714 1.75119 27.3032 1.73331 27.4271 1.76595C27.4886 1.78216 27.5462 1.81039 27.5967 1.849C27.6473 1.88761 27.6897 1.93586 27.7216 1.99096C27.7535 2.04606 27.7742 2.10694 27.7826 2.17009C27.791 2.23325 27.7868 2.29744 27.7704 2.35897C27.7434 2.46246 27.6828 2.554 27.5981 2.61913C27.5135 2.68427 27.4097 2.71931 27.303 2.71872C27.2611 2.71919 27.2194 2.71395 27.1789 2.70315Z" fill="url(#paint47_radial_359_420)"/>
<path d="M21.9836 1.26663C21.9839 1.13831 22.0348 1.01529 22.1252 0.924377C22.2156 0.833464 22.3382 0.782019 22.4663 0.78125C22.5945 0.781194 22.7175 0.83204 22.8083 0.922646C22.8991 1.01325 22.9504 1.13623 22.9509 1.26463C22.951 1.32826 22.9387 1.39131 22.9145 1.45016C22.8904 1.50902 22.8549 1.56252 22.81 1.6076C22.7652 1.65269 22.7119 1.68847 22.6533 1.7129C22.5946 1.73734 22.5317 1.74995 22.4682 1.75C22.34 1.75006 22.217 1.69922 22.1262 1.60861C22.0354 1.51801 21.9841 1.39503 21.9836 1.26663Z" fill="url(#paint48_radial_359_420)"/>
<path d="M35.4049 34.6179C42.7339 27.2956 42.7339 15.4237 35.4049 8.10133C28.0759 0.778976 16.1933 0.778976 8.86429 8.10133C1.53531 15.4237 1.53531 27.2956 8.86429 34.6179C16.1933 41.9403 28.0759 41.9403 35.4049 34.6179Z" fill="url(#paint49_radial_359_420)"/>
<path d="M40.3605 21.125C40.3605 31.2904 32.1323 39.5312 21.9837 39.5312C11.8342 39.5312 3.60645 31.2904 3.60645 21.125C3.60645 10.9594 11.8342 2.71875 21.9837 2.71875C32.1323 2.71875 40.3605 10.9594 40.3605 21.125Z" fill="#F7BB75"/>
<g opacity="0.2">
<path d="M9.53741 34.5629L22.1345 21.3596L4.94849 27.5291C5.90922 30.1987 7.48057 32.6072 9.53741 34.5629Z" fill="#070335"/>
<path d="M23.1119 39.5751C24.5247 39.5001 25.924 39.2617 27.2819 38.8647L22.1346 21.3596L18.8894 39.3141C20.2821 39.5638 21.6991 39.6514 23.1119 39.5751Z" fill="#070335"/>
<path d="M39.8821 25.6586L22.1345 21.3596L36.0719 33.142C37.9077 30.9779 39.2124 28.4154 39.8821 25.6586Z" fill="#070335"/>
<path d="M34.7316 8.15639L22.1345 21.3596L39.3205 15.1901C38.3598 12.5206 36.7884 10.1121 34.7316 8.15639Z" fill="#070335"/>
<path d="M4.38696 17.0607L22.1346 21.3596L8.19714 9.57716C6.36131 11.7413 5.05661 14.3038 4.38696 17.0607Z" fill="#070335"/>
<path d="M21.1577 3.14419C19.7448 3.21917 18.3453 3.45755 16.9873 3.85456L22.1346 21.3596L25.3797 3.40516C23.9872 3.15545 22.5704 3.06788 21.1577 3.14419Z" fill="#070335"/>
</g>
<g opacity="0.2">
<path d="M8.31397 33.2787L22.1345 21.3596L4.43018 25.833C5.12698 28.5831 6.45688 31.1327 8.31397 33.2787Z" fill="#070335"/>
<path d="M21.3374 39.5838C22.7508 39.6462 24.1667 39.5447 25.5567 39.2813L22.1346 21.3596L17.1602 38.9145C18.522 39.2981 19.9238 39.5227 21.3374 39.5838Z" fill="black"/>
<path d="M39.3805 27.3597L22.1345 21.3596L34.8611 34.4382C36.8986 32.4623 38.4461 30.0385 39.3805 27.3597Z" fill="black"/>
<path d="M35.955 9.44058L22.1345 21.3596L39.8388 16.8862C39.142 14.1361 37.8121 11.5865 35.955 9.44058Z" fill="black"/>
<path d="M4.88843 15.3596L22.1345 21.3596L9.40778 8.28096C7.37032 10.2568 5.82278 12.6807 4.88843 15.3596Z" fill="black"/>
<path d="M22.9321 3.13545C21.5186 3.07305 20.1026 3.17458 18.7124 3.43799L22.1344 21.3596L27.1089 3.8047C25.7472 3.42112 24.3456 3.19654 22.9321 3.13545Z" fill="black"/>
</g>
<path d="M8.7596 33.7187L21.9836 21.125L4.57373 26.4015C5.38626 29.1366 6.8196 31.6422 8.7596 33.7187Z" fill="#070335"/>
<path d="M22.4674 39.5312C23.9328 39.5319 25.3933 39.3672 26.8197 39.0405L22.4672 21.125L18.1147 39.0405C19.5413 39.3672 21.0019 39.5319 22.4674 39.5312Z" fill="#070335"/>
<path d="M39.3935 26.4015L21.9836 21.125L35.2076 33.7187C37.1476 31.6422 38.5809 29.1366 39.3935 26.4015Z" fill="#070335"/>
<path d="M35.2076 8.53125L21.9836 21.125L39.3935 15.8485C38.5809 13.1134 37.1476 10.6078 35.2076 8.53125Z" fill="#070335"/>
<path d="M4.57373 15.8485L21.9836 21.125L8.7596 8.53125C6.8196 10.6078 5.38626 13.1134 4.57373 15.8485Z" fill="#070335"/>
<path d="M22.4675 2.71875C21.0019 2.71809 19.5413 2.88278 18.1147 3.20952L22.4672 21.125L26.8197 3.20948C25.3933 2.88276 23.9328 2.71809 22.4675 2.71875Z" fill="#070335"/>
<path d="M21.0164 8.53125H22.9508V9.11601H21.4392V9.5H21.0164V8.53125Z" fill="#F7BB75"/>
<path d="M22.8366 8.06332C22.7564 8.21413 22.6404 8.33372 22.503 8.40719C22.3386 8.48907 22.162 8.53125 21.9836 8.53125C21.8052 8.53125 21.6285 8.48907 21.4641 8.40719C21.3268 8.33371 21.2109 8.21412 21.1307 8.06332C21.0558 7.91124 21.0164 7.73844 21.0164 7.5625C21.0164 7.38656 21.0558 7.21376 21.1307 7.06168C21.2109 6.91095 21.3269 6.79138 21.4641 6.71781C21.6285 6.63593 21.8052 6.59375 21.9836 6.59375C22.162 6.59375 22.3386 6.63593 22.503 6.71781C22.6403 6.79137 22.7563 6.91094 22.8366 7.06168C22.9114 7.21379 22.9508 7.38658 22.9508 7.5625C22.9508 7.73842 22.9114 7.91121 22.8366 8.06332ZM22.3914 7.31132C22.3056 7.24958 22.1696 7.21868 21.9836 7.21863C21.7976 7.21863 21.6616 7.24953 21.5757 7.31132C21.5369 7.33529 21.5043 7.37137 21.4816 7.41565C21.4589 7.45993 21.4469 7.51072 21.4469 7.5625C21.4469 7.61428 21.4589 7.66507 21.4816 7.70935C21.5043 7.75363 21.5369 7.78971 21.5757 7.81368C21.6617 7.87557 21.7976 7.90647 21.9836 7.90637C22.1696 7.90637 22.3055 7.87547 22.3914 7.81368C22.4303 7.78974 22.4629 7.75367 22.4856 7.70939C22.5083 7.6651 22.5204 7.6143 22.5204 7.5625C22.5204 7.5107 22.5083 7.4599 22.4856 7.41561C22.4629 7.37133 22.4303 7.33526 22.3914 7.31132Z" fill="#F7BB75"/>
<path d="M22.5629 5.72033C22.6459 5.78386 22.6991 5.87593 22.7224 5.99651H22.9508V6.18863H22.7306C22.7244 6.26574 22.7068 6.34204 22.6781 6.41599C22.6551 6.47895 22.6201 6.53887 22.5742 6.59375L22.2738 6.48969C22.3186 6.43563 22.3532 6.37684 22.3766 6.31514C22.4022 6.25192 22.4153 6.18608 22.4157 6.11983C22.4157 5.99808 22.3766 5.93722 22.2985 5.93724C22.2781 5.93737 22.2583 5.94246 22.2419 5.95181C22.2254 5.96115 22.2132 5.97428 22.2068 5.98933C22.1795 6.04351 22.1585 6.09951 22.1441 6.15664C22.1253 6.22833 22.1002 6.29894 22.069 6.36795C22.0426 6.42418 21.9983 6.47432 21.9404 6.51372C21.8814 6.55423 21.8019 6.57451 21.7017 6.57455C21.645 6.57511 21.5888 6.56658 21.5366 6.5495C21.4844 6.53242 21.4372 6.50715 21.3981 6.47526C21.3137 6.40909 21.2619 6.31355 21.2427 6.18863H21.0164V5.99651H21.2386C21.2451 5.93717 21.2589 5.87846 21.2798 5.82117C21.2984 5.76887 21.3253 5.71858 21.36 5.67149L21.6626 5.76915C21.5927 5.86382 21.5545 5.97061 21.5514 6.07974C21.5514 6.14278 21.5634 6.1887 21.5875 6.21748C21.5968 6.23049 21.6103 6.24134 21.6268 6.24894C21.6432 6.25653 21.662 6.26059 21.6811 6.2607C21.7195 6.2607 21.7483 6.24361 21.7675 6.20945C21.7939 6.15603 21.8139 6.10084 21.8272 6.04456C21.8457 5.97254 21.8708 5.90165 21.9023 5.83241C21.9289 5.77648 21.9727 5.72646 22.0299 5.6867C22.0883 5.64563 22.1675 5.62507 22.2676 5.62502C22.3225 5.62458 22.377 5.63279 22.4278 5.64917C22.4785 5.66555 22.5245 5.68976 22.5629 5.72033Z" fill="#F7BB75"/>
<path d="M21.4416 34.6875H21.0164V32.8701H21.3522L22.0159 33.7437C22.0637 33.811 22.1199 33.8684 22.1825 33.9138C22.2255 33.9417 22.2733 33.9566 22.3219 33.9571C22.3491 33.9589 22.3761 33.9528 22.401 33.9395C22.4259 33.9262 22.448 33.906 22.4655 33.8805C22.5033 33.8156 22.5216 33.7366 22.5171 33.657C22.5178 33.5739 22.5014 33.4919 22.4696 33.4186C22.4374 33.3455 22.3903 33.284 22.3329 33.2401L22.555 32.75C22.6787 32.8422 22.779 32.975 22.8448 33.1335C22.9183 33.3144 22.9546 33.5148 22.9505 33.717C22.953 33.8786 22.929 34.0391 22.88 34.1889C22.8386 34.3169 22.7686 34.4278 22.6782 34.509C22.5892 34.5862 22.4825 34.6266 22.3735 34.6241C22.2727 34.6247 22.173 34.5967 22.0823 34.5424C21.991 34.4878 21.8876 34.3828 21.7721 34.2273L21.4416 33.7871V34.6875Z" fill="#F7BB75"/>
<path d="M21.1305 34.9215C21.2108 34.8461 21.3268 34.7863 21.4641 34.7495C21.6285 34.7086 21.8051 34.6875 21.9836 34.6875C22.162 34.6875 22.3386 34.7086 22.503 34.7495C22.6403 34.7863 22.7563 34.8461 22.8365 34.9215C22.9113 34.9975 22.9508 35.0839 22.9508 35.1719C22.9508 35.2599 22.9113 35.3463 22.8365 35.4223C22.7562 35.4977 22.6403 35.5574 22.503 35.5942C22.3386 35.6352 22.162 35.6562 21.9836 35.6562C21.8052 35.6562 21.6285 35.6352 21.4641 35.5942C21.3268 35.5575 21.2108 35.4977 21.1305 35.4223C21.0557 35.3462 21.0164 35.2598 21.0164 35.1719C21.0164 35.0839 21.0557 34.9975 21.1305 34.9215ZM21.5757 35.2975C21.6616 35.3283 21.7975 35.3438 21.9836 35.3438C22.1696 35.3438 22.3055 35.3284 22.3914 35.2975C22.4303 35.2855 22.4628 35.2675 22.4855 35.2453C22.5082 35.2232 22.5202 35.1978 22.5202 35.1719C22.5202 35.146 22.5082 35.1206 22.4855 35.0985C22.4628 35.0763 22.4303 35.0583 22.3914 35.0463C22.3055 35.0153 22.1695 34.9999 21.9836 34.9999C21.7975 34.9999 21.6616 35.0154 21.5757 35.0463C21.5368 35.0583 21.5042 35.0763 21.4815 35.0984C21.4588 35.1206 21.4468 35.146 21.4468 35.1719C21.4468 35.1978 21.4588 35.2232 21.4815 35.2453C21.5042 35.2675 21.5368 35.2855 21.5757 35.2975Z" fill="#F7BB75"/>
<path d="M21.4042 36.5297C21.3212 36.4661 21.268 36.3741 21.2447 36.2535H21.0164V36.0614H21.2365C21.2427 35.9843 21.2603 35.908 21.289 35.834C21.3121 35.771 21.3471 35.7111 21.3929 35.6562L21.6934 35.7603C21.6485 35.8144 21.6139 35.8732 21.5905 35.9349C21.565 35.9981 21.5518 36.0639 21.5514 36.1302C21.5514 36.2519 21.5905 36.3128 21.6687 36.3128C21.6891 36.3126 21.7088 36.3075 21.7253 36.2982C21.7417 36.2888 21.754 36.2757 21.7603 36.2607C21.7877 36.2065 21.8087 36.1505 21.8231 36.0934C21.8418 36.0217 21.8669 35.9511 21.8982 35.8821C21.9246 35.8258 21.9688 35.7757 22.0268 35.7363C22.0857 35.6958 22.1653 35.6755 22.2655 35.6754C22.3221 35.6749 22.3783 35.6834 22.4305 35.7005C22.4828 35.7176 22.5299 35.7429 22.569 35.7747C22.6534 35.8409 22.7052 35.9364 22.7244 36.0614H22.9508V36.2535H22.7285C22.722 36.3128 22.7082 36.3715 22.6873 36.4288C22.6687 36.4811 22.6418 36.5314 22.6071 36.5785L22.3046 36.4808C22.3744 36.3862 22.4127 36.2794 22.4157 36.1703C22.4157 36.1072 22.4037 36.0613 22.3797 36.0325C22.3704 36.0195 22.3568 36.0087 22.3404 36.0011C22.3239 35.9935 22.3052 35.9894 22.286 35.9893C22.2477 35.9893 22.2189 36.0064 22.1996 36.0405C22.1732 36.094 22.1533 36.1492 22.14 36.2054C22.1214 36.2775 22.0963 36.3483 22.0649 36.4176C22.0382 36.4735 21.9944 36.5235 21.9373 36.5633C21.8789 36.6044 21.7997 36.6249 21.6996 36.625C21.6446 36.6254 21.5901 36.6172 21.5394 36.6008C21.4886 36.5844 21.4427 36.5602 21.4042 36.5297Z" fill="#F7BB75"/>
<path d="M34.4613 14.3212L34.5573 14.6528L33.9757 15.3125L33.8999 15.0505L34.0297 14.216C34.0404 14.1542 34.0461 14.0895 34.0465 14.0242C34.0458 13.9805 34.0397 13.9379 34.0289 13.8997C34.0233 13.878 34.0153 13.859 34.0054 13.8444C33.9955 13.8298 33.9841 13.8199 33.972 13.8155C33.9427 13.8096 33.9133 13.8241 33.8889 13.8565C33.8621 13.8861 33.8396 13.9286 33.8233 13.98C33.8071 14.0317 33.7981 14.0908 33.797 14.1515L33.5901 14.1562C33.5916 14.0263 33.6114 13.8998 33.6473 13.791C33.6886 13.668 33.7446 13.5669 33.8103 13.4968C33.8613 13.4362 33.9181 13.3966 33.977 13.3803C34.0274 13.3661 34.0787 13.3805 34.1251 13.4216C34.1699 13.4629 34.2069 13.5316 34.2307 13.6174C34.2537 13.6959 34.2672 13.7838 34.2703 13.8743C34.2734 13.9651 34.2631 14.0838 34.2394 14.2303L34.1732 14.648L34.4613 14.3212Z" fill="#F7BB75"/>
<path d="M36.4712 14.0017C36.4319 14.0623 36.3305 14.1187 36.1668 14.1711L36.318 14.2777L36.0329 14.3437L35.887 14.2409C35.7685 14.2646 35.6436 14.2826 35.5148 14.2946C35.4062 14.3055 35.294 14.3098 35.1822 14.3072L35.1382 14.1313C35.248 14.1336 35.3581 14.1295 35.4651 14.1193C35.5758 14.1094 35.6823 14.093 35.7809 14.0703C35.9615 14.0285 36.026 13.9894 35.9743 13.9529C35.9607 13.9435 35.9401 13.936 35.9153 13.9315C35.8906 13.9271 35.8631 13.9258 35.8365 13.9281C35.738 13.9338 35.6409 13.9433 35.5466 13.9562C35.4277 13.9721 35.3063 13.9847 35.1832 13.9938C35.0822 14.0008 34.9785 13.9974 34.8818 13.9839C34.7824 13.9703 34.6996 13.9401 34.6334 13.8934C34.5951 13.8671 34.5707 13.838 34.5615 13.8077C34.5523 13.7775 34.5586 13.7468 34.58 13.7176C34.6223 13.6555 34.7299 13.5985 34.9027 13.5467L34.7529 13.441L35.038 13.375L35.1851 13.4787C35.2774 13.4613 35.3736 13.4476 35.4724 13.4376C35.5624 13.4283 35.6549 13.4236 35.7478 13.4237L35.803 13.5983C35.6162 13.5983 35.4324 13.6172 35.2684 13.6532C35.1749 13.6749 35.1147 13.6963 35.0879 13.7174C35.0747 13.7262 35.0676 13.7363 35.0672 13.7466C35.0668 13.7568 35.0732 13.767 35.0857 13.776C35.1112 13.7939 35.1555 13.8015 35.2189 13.7986C35.3157 13.7926 35.4108 13.783 35.5032 13.7699C35.6223 13.7537 35.7442 13.7411 35.8678 13.732C35.9684 13.7252 36.0717 13.7284 36.1685 13.7415C36.2679 13.7545 36.3508 13.7844 36.4172 13.8312C36.4543 13.8567 36.4781 13.8849 36.4874 13.9142C36.4967 13.9435 36.4912 13.9733 36.4712 14.0017Z" fill="#F7BB75"/>
<path d="M11.4411 28.875L10.377 27.2076L10.9022 26.9375L11.7336 28.2403L12.0785 28.0629L12.3114 28.4273L11.4411 28.875Z" fill="#F7BB75"/>
<path d="M9.88863 28.2016C9.80529 28.1888 9.72653 28.1601 9.65834 28.1179C9.59014 28.0756 9.5343 28.0208 9.49505 27.9577C9.43563 27.872 9.40624 27.7739 9.41028 27.6747C9.41681 27.5676 9.46081 27.4644 9.53677 27.3781C9.634 27.2684 9.75896 27.1781 9.90267 27.1138C10.0226 27.0562 10.1503 27.011 10.2832 26.9794C10.4041 26.9488 10.5301 26.9348 10.6563 26.9379L10.6911 27.3247C10.5957 27.3195 10.4999 27.3264 10.407 27.3451C10.3134 27.3635 10.2234 27.3932 10.1399 27.4332C10.0689 27.4636 10.0097 27.5104 9.96919 27.5681C9.95378 27.5905 9.94582 27.6159 9.94613 27.6417C9.94644 27.6675 9.95501 27.6928 9.97094 27.7149C9.98491 27.7373 10.006 27.756 10.0319 27.7689C10.0577 27.7818 10.0873 27.7884 10.1174 27.7879C10.1826 27.7891 10.2767 27.7601 10.3997 27.7009L10.8606 27.4789L11.3443 28.3538L10.2623 28.875L10.0494 28.5629L10.7335 28.2333L10.6136 28.0148L10.4996 28.0697C10.2619 28.1842 10.0582 28.2282 9.88863 28.2016Z" fill="#F7BB75"/>
<path d="M8.45293 28.5903C8.47256 28.469 8.5233 28.3561 8.60515 28.2516L8.52952 28.0383L8.67208 27.9062L8.74498 28.1119C8.80424 28.0645 8.86671 28.0285 8.93113 28.0045C8.98544 27.9827 9.04146 27.9743 9.09733 27.9793L9.11947 28.3312C9.06453 28.3266 9.00946 28.3346 8.95593 28.3552C8.90056 28.3749 8.84733 28.4079 8.79798 28.453C8.7077 28.5366 8.67551 28.6149 8.70139 28.6879C8.7082 28.7068 8.71852 28.7218 8.73088 28.7307C8.74324 28.7396 8.75702 28.742 8.77027 28.7375C8.81956 28.726 8.8681 28.7071 8.91525 28.6812C8.97469 28.6494 9.0354 28.6243 9.09697 28.6061C9.14744 28.592 9.19928 28.5989 9.24768 28.6259C9.29735 28.6531 9.33856 28.7135 9.37175 28.807C9.3909 28.8595 9.40316 28.9178 9.40777 28.9782C9.41239 29.0387 9.40926 29.1 9.39857 29.1585C9.37736 29.2827 9.32357 29.3967 9.23723 29.5004L9.31212 29.7117L9.16956 29.8437L9.096 29.6364C9.0498 29.671 9.00168 29.6985 8.95228 29.7185C8.90731 29.7371 8.86107 29.7465 8.81464 29.7464L8.78705 29.3971C8.88041 29.3971 8.97228 29.3593 9.05429 29.2872C9.10104 29.2439 9.13116 29.2011 9.14463 29.159C9.15119 29.1413 9.15474 29.1212 9.15493 29.1006C9.15512 29.0801 9.15195 29.0598 9.14573 29.0418C9.13296 29.006 9.11074 28.9908 9.07904 28.9964C9.03067 29.0084 8.98309 29.0276 8.93691 29.0538C8.87735 29.0863 8.81642 29.1116 8.75458 29.1297C8.70427 29.1433 8.65265 29.1368 8.60424 29.1108C8.55445 29.0846 8.51301 29.0247 8.47992 28.9313C8.4614 28.8804 8.44945 28.8239 8.44481 28.7653C8.44017 28.7067 8.44293 28.6472 8.45293 28.5903Z" fill="#F7BB75"/>
<path d="M34.5573 28.115L33.9049 28.875L33.5901 28.749L34.0999 28.1551L33.8932 28.0723L34.0358 27.9062L34.5573 28.115Z" fill="#F7BB75"/>
<path d="M35.133 29.6761C35.0666 29.709 34.9904 29.6939 34.9043 29.6309L34.8361 29.8437L34.7102 29.7088L34.776 29.5036C34.7273 29.4437 34.6826 29.3738 34.6427 29.2952C34.6084 29.2296 34.5796 29.1549 34.5574 29.0736L34.7153 28.8667C34.7373 28.9464 34.7654 29.0199 34.7989 29.085C34.8327 29.1532 34.8719 29.2117 34.9152 29.2587C34.995 29.3441 35.0465 29.3504 35.0699 29.2774C35.0759 29.2584 35.0785 29.2364 35.0773 29.2145C35.0761 29.1927 35.0711 29.172 35.0632 29.1556C35.0358 29.0921 35.0054 29.0332 34.9724 28.9797C34.931 28.9119 34.8922 28.8389 34.8563 28.7613C34.8273 28.6973 34.8077 28.6208 34.7992 28.5392C34.7902 28.4557 34.8007 28.3673 34.8307 28.2741C34.8472 28.2209 34.8696 28.1745 34.8964 28.1378C34.9232 28.1012 34.9538 28.075 34.9864 28.0609C35.055 28.0288 35.1331 28.0475 35.2206 28.1172L35.2883 27.9062L35.4142 28.0412L35.3478 28.2484C35.3847 28.2961 35.4191 28.3501 35.4504 28.4097C35.4791 28.4638 35.5041 28.5242 35.5246 28.5897L35.3701 28.803C35.3289 28.6714 35.2704 28.5608 35.1998 28.4813C35.1585 28.4371 35.1249 28.4161 35.0988 28.4183C35.0875 28.4178 35.0763 28.4228 35.0664 28.4328C35.0565 28.4428 35.0482 28.4574 35.0424 28.4751C35.0309 28.5109 35.0335 28.5498 35.0502 28.5917C35.0773 28.6538 35.1075 28.7111 35.1404 28.763C35.1821 28.8308 35.2211 28.904 35.257 28.982C35.2857 29.0461 35.3054 29.122 35.3144 29.203C35.3239 29.2863 35.3137 29.3745 35.2837 29.4677C35.2676 29.5193 35.246 29.5643 35.2201 29.6002C35.1942 29.636 35.1645 29.6618 35.133 29.6761Z" fill="#F7BB75"/>
<path d="M9.40991 14.8951L10.0624 13.375L10.3771 13.627L9.8673 14.8147L10.074 14.9802L9.93136 15.3125L9.40991 14.8951Z" fill="#F7BB75"/>
<path d="M9.22564 12.5738C9.35845 12.541 9.5109 12.5561 9.683 12.6191L9.81948 12.4062L10.0714 12.5411L9.93978 12.7463C10.0371 12.8062 10.1266 12.8761 10.2063 12.9548C10.275 13.0204 10.3325 13.0951 10.3771 13.1763L10.061 13.3833C9.97004 13.2213 9.83163 13.0856 9.6612 12.9913C9.50172 12.9059 9.39861 12.8997 9.35186 12.9725C9.33986 12.9916 9.3347 13.0136 9.33712 13.0354C9.33954 13.0573 9.34942 13.0779 9.36535 13.0944C9.42 13.1579 9.48086 13.2168 9.54718 13.2702C9.6299 13.3381 9.70742 13.4111 9.77921 13.4887C9.8371 13.5528 9.87636 13.6292 9.89334 13.7109C9.91127 13.7944 9.89025 13.8827 9.83027 13.976C9.7972 14.0292 9.75248 14.0756 9.6989 14.1123C9.64532 14.149 9.58404 14.1752 9.51888 14.1892C9.38165 14.2213 9.22552 14.2025 9.05051 14.1328L8.91522 14.3438L8.66331 14.2089L8.79612 14.0018C8.72228 13.954 8.65359 13.9 8.59098 13.8403C8.53348 13.7863 8.48363 13.7258 8.44263 13.6604L8.75141 13.447C8.83383 13.5786 8.95102 13.6892 9.09228 13.7687C9.17478 13.8129 9.24227 13.8339 9.29408 13.8317C9.31668 13.8323 9.33903 13.8273 9.35884 13.8173C9.37864 13.8073 9.3952 13.7927 9.40681 13.775C9.42981 13.7391 9.42463 13.7002 9.39127 13.6584C9.33704 13.5963 9.27664 13.5389 9.21085 13.4869C9.12748 13.4191 9.04954 13.3459 8.97763 13.268C8.92034 13.2038 8.88095 13.1279 8.86284 13.0468C8.84395 12.9636 8.86444 12.8754 8.92429 12.7821C8.95652 12.7306 8.99983 12.6855 9.05163 12.6497C9.10342 12.6139 9.16262 12.5881 9.22564 12.5738Z" fill="#F7BB75"/>
<g style="mix-blend-mode:multiply">
<path d="M27.9973 12.1224L28.2871 12.2903L27.6159 13.4472L27.387 13.3146L26.991 12.2151L26.6228 12.8499L26.3328 12.6819L26.9782 11.5693L27.2072 11.7019L27.6033 12.8015L27.9973 12.1224Z" fill="#070335"/>
<path d="M28.6991 10.9291L28.9815 11.0927L28.38 12.1297L27.0872 11.3811L27.6747 10.3681L27.9574 10.5318L27.5796 11.1831L27.7976 11.3093L28.1304 10.7354L28.4037 10.8937L28.0708 11.4676L28.3073 11.6045L28.6991 10.9291Z" fill="#070335"/>
<path d="M29.0835 10.1262L28.9679 10.3255L29.3114 10.5244L29.0995 10.8897L27.8066 10.1411L28.1491 9.55063C28.2073 9.44478 28.2873 9.3525 28.3839 9.27989C28.4461 9.23691 28.5167 9.20738 28.591 9.19321C28.6653 9.17903 28.7418 9.18051 28.8155 9.19756C28.8892 9.2146 28.9586 9.24684 29.0191 9.2922C29.0796 9.33756 29.13 9.39504 29.167 9.46098C29.2119 9.54778 29.2309 9.64562 29.2219 9.7429L29.7898 9.69955L29.5629 10.0907L29.0835 10.1262ZM28.5728 9.59883C28.5174 9.61775 28.4679 9.66467 28.4244 9.73959L28.3066 9.94256L28.6853 10.1619L28.8031 9.95895C28.8466 9.88397 28.8631 9.81792 28.8525 9.7608C28.8464 9.7313 28.8336 9.70358 28.8152 9.67969C28.7968 9.65581 28.7733 9.63639 28.7463 9.62287C28.721 9.60622 28.6923 9.59542 28.6623 9.59127C28.6323 9.58711 28.6017 9.58969 28.5728 9.59883Z" fill="#070335"/>
<path d="M29.9947 9.20574C29.8768 9.28005 29.7408 9.3207 29.6015 9.32331C29.4621 9.32592 29.3247 9.29038 29.2041 9.22054C29.0835 9.1507 28.9843 9.04922 28.9173 8.9271C28.8503 8.80498 28.818 8.66687 28.8239 8.52773C28.8332 8.38036 28.8767 8.23717 28.9508 8.10941C29.0249 7.98165 29.1276 7.87282 29.251 7.79148C29.3689 7.71715 29.5049 7.67647 29.6443 7.67386C29.7837 7.67124 29.9211 7.70678 30.0417 7.77662C30.1623 7.84647 30.2615 7.94796 30.3285 8.0701C30.3955 8.19223 30.4278 8.33036 30.4218 8.46951C30.4127 8.61693 30.3694 8.7602 30.2952 8.88799C30.2211 9.01577 30.1182 9.12456 29.9947 9.20574ZM30.0489 8.5086C30.0487 8.43768 30.0288 8.36819 29.9916 8.30781C29.9494 8.24289 29.8924 8.18882 29.8253 8.14999C29.7583 8.11115 29.683 8.08864 29.6056 8.08428C29.5345 8.08186 29.4642 8.09917 29.4024 8.13428C29.3408 8.17093 29.2896 8.22272 29.2536 8.28472C29.2177 8.34672 29.1982 8.41688 29.197 8.48853C29.1971 8.55954 29.217 8.62912 29.2544 8.68951C29.2966 8.75451 29.3535 8.80864 29.4206 8.84748C29.4877 8.88633 29.563 8.90879 29.6405 8.91304C29.7115 8.91547 29.7817 8.89809 29.8434 8.86286C29.9051 8.82626 29.9564 8.77448 29.9923 8.71246C30.0283 8.65045 30.0477 8.58026 30.0489 8.5086Z" fill="#070335"/>
<path d="M18.8283 25.5152C18.9016 25.4584 18.9881 25.4211 19.0797 25.4068L19.2005 25.743C19.0707 25.7599 18.9826 25.8084 18.9363 25.8883C18.9218 25.9099 18.9123 25.9344 18.9084 25.9601C18.9046 25.9858 18.9066 26.0121 18.9142 26.0369C18.9301 26.0831 18.9689 26.1241 19.0304 26.1597L19.5863 26.4816L19.8453 26.035L20.128 26.1987L19.6592 27.0069L18.8428 26.5341C18.6754 26.4373 18.5742 26.3224 18.5393 26.1895C18.5046 26.0568 18.5347 25.9087 18.6294 25.7451C18.6796 25.6559 18.7472 25.5777 18.8283 25.5152Z" fill="#070335"/>
<path d="M17.9884 27.4886L18.3052 26.9424L18.1128 26.6955L18.3291 26.3228L19.2911 27.6417L19.0825 28.0014L17.4578 27.8249L17.6783 27.4447L17.9884 27.4886ZM18.32 27.5377L18.8301 27.6113L18.5127 27.2056L18.32 27.5377Z" fill="#070335"/>
<path d="M17.3061 28.224C17.4218 28.1507 17.5555 28.1108 17.6925 28.1089C17.8333 28.1096 17.9714 28.1471 18.0932 28.2176C18.215 28.2881 18.3162 28.3892 18.3869 28.5108C18.4532 28.6306 18.4851 28.7664 18.479 28.9032C18.472 29.0494 18.4289 29.1917 18.3533 29.3172C18.2915 29.4278 18.2071 29.5243 18.1055 29.6002C18.0118 29.6692 17.9027 29.7143 17.7875 29.7316L17.7118 29.3772C17.8612 29.3519 17.9705 29.2796 18.0398 29.1604C18.0788 29.0957 18.1004 29.0219 18.1024 28.9464C18.1036 28.8748 18.0839 28.8043 18.0458 28.7436C18.0032 28.6791 17.9461 28.6254 17.8791 28.5866C17.8122 28.5478 17.7371 28.5251 17.6599 28.5201C17.5883 28.5173 17.5174 28.5354 17.4558 28.5721C17.3911 28.6112 17.3377 28.6666 17.3011 28.7327C17.2319 28.8519 17.2235 28.9826 17.2759 29.1248L16.9305 29.2354C16.888 29.127 16.8729 29.0099 16.8864 28.8944C16.9019 28.7686 16.9436 28.6474 17.0088 28.5388C17.0803 28.4109 17.1825 28.3027 17.3061 28.224Z" fill="#070335"/>
<path d="M16.7987 30.0413L16.732 29.8203L16.4088 29.6331L16.6186 29.2714L17.9115 30.0201L17.7017 30.3818L17.1642 30.0705L17.4116 30.8818L17.1782 31.2841L16.9119 30.4249L15.8694 30.5631L16.1156 30.1387L16.7987 30.0413Z" fill="#070335"/>
<path d="M16.529 32.2689C16.4463 32.3307 16.3473 32.3668 16.2443 32.3728C16.1412 32.3788 16.0387 32.3544 15.9494 32.3027C15.8601 32.251 15.7879 32.1742 15.7419 32.0819C15.6959 31.9895 15.678 31.8858 15.6905 31.7834C15.7055 31.6636 15.7459 31.5483 15.8089 31.4452L15.9395 31.2201L15.6016 31.0244L15.8135 30.6591L17.1064 31.4077L16.7638 31.9982C16.7057 32.1041 16.6256 32.1964 16.529 32.2689ZM16.0605 31.788C16.0666 31.8175 16.0793 31.8453 16.0977 31.8691C16.1161 31.893 16.1396 31.9124 16.1666 31.926C16.1919 31.9426 16.2206 31.9534 16.2507 31.9576C16.2807 31.9617 16.3113 31.9591 16.3402 31.95C16.3955 31.9311 16.4451 31.8843 16.4886 31.8092L16.6063 31.6063L16.2276 31.3869L16.1099 31.5899C16.0663 31.665 16.0498 31.731 16.0605 31.788Z" fill="#070335"/>
<path d="M14.9216 32.3376C15.0395 32.2633 15.1755 32.2227 15.3148 32.22C15.4542 32.2174 15.5916 32.253 15.7122 32.3228C15.8328 32.3926 15.932 32.4941 15.9991 32.6162C16.0661 32.7383 16.0984 32.8764 16.0926 33.0155C16.0833 33.1629 16.0398 33.3061 15.9657 33.4339C15.8916 33.5617 15.7888 33.6705 15.6654 33.7518C15.5475 33.8261 15.4115 33.8668 15.2721 33.8695C15.1328 33.8721 14.9953 33.8366 14.8747 33.7667C14.7541 33.6969 14.6549 33.5954 14.5879 33.4733C14.5209 33.3511 14.4886 33.213 14.4946 33.0738C14.5038 32.9265 14.5471 32.7832 14.6212 32.6554C14.6953 32.5277 14.7981 32.4189 14.9216 32.3376ZM14.8676 33.0347C14.8678 33.1057 14.8876 33.1752 14.9249 33.2355C14.9671 33.3005 15.0241 33.3546 15.0911 33.3934C15.1582 33.4322 15.2334 33.4547 15.3108 33.4591C15.3819 33.4614 15.4522 33.4441 15.514 33.4091C15.5756 33.3724 15.6268 33.3206 15.6628 33.2586C15.6988 33.1966 15.7184 33.1265 15.7196 33.0548C15.7193 32.9838 15.6993 32.9142 15.6619 32.8538C15.6197 32.7889 15.5628 32.7348 15.4957 32.6959C15.4286 32.6571 15.3533 32.6346 15.276 32.6303C15.205 32.6279 15.1347 32.6453 15.073 32.6805C15.0113 32.7171 14.9601 32.7689 14.9241 32.8309C14.8882 32.8929 14.8687 32.9631 14.8676 33.0347Z" fill="#070335"/>
<path d="M14.9733 34.4173L15.2035 34.0206L15.4934 34.1886L14.8224 35.3454L14.5323 35.1775L14.7613 34.7826L13.7585 34.2019L13.9705 33.8366L14.9733 34.4173Z" fill="#070335"/>
<path d="M34.8826 21.3787C34.9318 21.4207 34.9707 21.4733 34.9965 21.5325C35.0223 21.5918 35.0342 21.6561 35.0314 21.7206C35.0317 21.8107 35.0065 21.8989 34.9587 21.9752C34.9055 22.0568 34.8295 22.1209 34.74 22.1596C34.6258 22.2086 34.5021 22.2317 34.3779 22.2271C34.2725 22.2267 34.1675 22.2133 34.0654 22.1873C33.9716 22.1651 33.882 22.1279 33.8 22.0772L33.9533 21.7601C34.0139 21.8008 34.0803 21.8321 34.1503 21.8529C34.2204 21.8743 34.2933 21.8854 34.3667 21.8859C34.4275 21.8892 34.4879 21.8751 34.541 21.8452C34.5613 21.8335 34.5781 21.8166 34.5896 21.7962C34.6012 21.7758 34.607 21.7527 34.6066 21.7293C34.6076 21.7064 34.6021 21.6836 34.5909 21.6636C34.5797 21.6436 34.5632 21.6271 34.5431 21.6159C34.5006 21.5902 34.4252 21.577 34.317 21.5764L33.9115 21.5744L33.9905 20.7025L34.9425 20.7071L34.9409 21.0334L34.3389 21.0305L34.3187 21.248L34.419 21.2484C34.6282 21.2495 34.7828 21.2929 34.8826 21.3787Z" fill="#070335"/>
<path d="M35.4692 22.1409C35.3671 22.076 35.2862 21.9825 35.2368 21.872C35.1818 21.7398 35.1538 21.5979 35.1546 21.4547C35.1553 21.3115 35.1847 21.1698 35.241 21.0382C35.2914 20.9282 35.3732 20.8355 35.4761 20.7717C35.5798 20.7121 35.6974 20.6811 35.817 20.6816C35.9366 20.6822 36.0539 20.7144 36.157 20.775C36.2591 20.84 36.3399 20.9334 36.3894 21.0438C36.4444 21.1761 36.4724 21.318 36.4717 21.4612C36.4709 21.6044 36.4416 21.746 36.3852 21.8777C36.3347 21.9876 36.253 22.0803 36.1502 22.1442C36.0465 22.2037 35.9288 22.2348 35.8093 22.2342C35.6897 22.2336 35.5723 22.2014 35.4692 22.1409ZM35.9822 21.7862C36.0246 21.7174 36.0461 21.6084 36.0469 21.4591C36.0476 21.3098 36.0272 21.2005 35.9855 21.1314C35.9693 21.1002 35.9449 21.0739 35.9149 21.0555C35.8849 21.0372 35.8504 21.0273 35.8152 21.0272C35.78 21.027 35.7455 21.0365 35.7153 21.0545C35.6851 21.0726 35.6604 21.0986 35.644 21.1297C35.6015 21.1985 35.58 21.3076 35.5793 21.4568C35.5786 21.6061 35.5991 21.7153 35.6407 21.7844C35.657 21.8159 35.6815 21.8422 35.7118 21.8606C35.742 21.879 35.7767 21.8888 35.8121 21.8888C35.8832 21.8891 35.94 21.8549 35.9822 21.7862Z" fill="#070335"/>
<path d="M37.7505 22.0679C37.6653 22.1535 37.5423 22.2079 37.3814 22.2313L37.3803 22.468L37.1241 22.4667L37.1253 22.2386C37.0225 22.2317 36.9209 22.2129 36.8224 22.1826C36.7386 22.1584 36.6589 22.1217 36.5859 22.0738L36.7262 21.7631C36.798 21.81 36.8762 21.8463 36.9584 21.8709C37.0426 21.8977 37.1303 21.9119 37.2186 21.9127C37.3809 21.9135 37.4623 21.8734 37.4626 21.7924C37.4626 21.7713 37.4559 21.7507 37.4435 21.7336C37.4311 21.7165 37.4137 21.7037 37.3936 21.6971C37.3215 21.6684 37.2469 21.6462 37.1709 21.6309C37.0754 21.611 36.9814 21.5845 36.8895 21.5518C36.8147 21.524 36.7481 21.4778 36.6959 21.4175C36.6422 21.3562 36.6156 21.2735 36.616 21.1697C36.6155 21.111 36.6272 21.0528 36.6503 20.9988C36.6733 20.9448 36.7073 20.8961 36.75 20.8557C36.8385 20.7687 36.9662 20.7157 37.1329 20.6966L37.134 20.462L37.3901 20.4632L37.389 20.6936C37.4681 20.7007 37.5463 20.7154 37.6226 20.7375C37.6922 20.757 37.7591 20.7853 37.8217 20.8216L37.6899 21.1344C37.5641 21.0615 37.4219 21.0212 37.2764 21.0172C37.1924 21.0168 37.1312 21.029 37.0926 21.0537C37.0752 21.0632 37.0607 21.0772 37.0505 21.0942C37.0403 21.1112 37.0348 21.1306 37.0345 21.1504C37.0343 21.1902 37.057 21.2202 37.1024 21.2404C37.1735 21.268 37.247 21.2891 37.3219 21.3032C37.4178 21.3229 37.5122 21.3494 37.6044 21.3825C37.6788 21.4105 37.7453 21.4562 37.7981 21.5157C37.8524 21.5765 37.8794 21.6587 37.8791 21.7624C37.8794 21.8193 37.8681 21.8758 37.846 21.9283C37.8239 21.9808 37.7914 22.0283 37.7505 22.0679Z" fill="#070335"/>
<path d="M10.7974 22.0027L10.8048 20.5097L11.2273 20.5118L11.2215 21.6784L11.499 21.6797L11.4974 22.0061L10.7974 22.0027Z" fill="#070335"/>
<path d="M10.2624 20.5689C10.3646 20.6338 10.4455 20.7273 10.4949 20.8378C10.5499 20.97 10.5778 21.1119 10.5771 21.2551C10.5764 21.3983 10.547 21.5399 10.4907 21.6716C10.4402 21.7815 10.3585 21.8742 10.2557 21.9381C10.152 21.9977 10.0344 22.0287 9.91482 22.0281C9.79522 22.0276 9.67791 21.9953 9.57481 21.9348C9.47263 21.8698 9.39178 21.7763 9.34226 21.6659C9.28727 21.5337 9.25931 21.3918 9.26002 21.2486C9.26074 21.1054 9.29012 20.9638 9.34644 20.8321C9.39697 20.7221 9.47872 20.6295 9.58152 20.5656C9.68521 20.506 9.80283 20.475 9.92242 20.4755C10.042 20.4761 10.1593 20.5083 10.2624 20.5689ZM9.74944 20.9236C9.70717 20.9923 9.68563 21.1014 9.68482 21.2507C9.68406 21.4 9.70453 21.5092 9.74622 21.5784C9.76235 21.6096 9.78675 21.6359 9.81676 21.6542C9.84677 21.6726 9.88124 21.6824 9.91644 21.6826C9.95164 21.6828 9.98622 21.6733 10.0164 21.6552C10.0466 21.6372 10.0713 21.6112 10.0877 21.5801C10.1302 21.5112 10.1517 21.4022 10.1523 21.253C10.1531 21.1037 10.1326 20.9944 10.0909 20.9253C10.0748 20.894 10.0504 20.8678 10.0204 20.8494C9.9904 20.831 9.95591 20.8212 9.9207 20.821C9.88549 20.8208 9.85091 20.8303 9.82071 20.8484C9.79051 20.8665 9.76586 20.8925 9.74944 20.9236Z" fill="#070335"/>
<path d="M8.80005 20.5617C8.90225 20.6266 8.98309 20.7201 9.03248 20.8305C9.08747 20.9628 9.11544 21.1047 9.11472 21.2479C9.114 21.3911 9.08462 21.5327 9.0283 21.6644C8.97784 21.7743 8.89612 21.867 8.79332 21.9309C8.68963 21.9904 8.57201 22.0215 8.45241 22.0209C8.33282 22.0204 8.2155 21.9881 8.1124 21.9276C8.01023 21.8626 7.92939 21.7691 7.87988 21.6587C7.82488 21.5265 7.79691 21.3846 7.79762 21.2414C7.79833 21.0982 7.82771 20.9566 7.88403 20.8249C7.93457 20.7149 8.01632 20.6223 8.11914 20.5584C8.22283 20.4988 8.34044 20.4678 8.46004 20.4683C8.57964 20.4689 8.69695 20.5011 8.80005 20.5617ZM8.28704 20.9164C8.24477 20.9851 8.22323 21.0942 8.22242 21.2435C8.22166 21.3928 8.24212 21.502 8.28382 21.5712C8.29995 21.6024 8.32435 21.6287 8.35436 21.647C8.38437 21.6654 8.41885 21.6752 8.45405 21.6754C8.48925 21.6756 8.52383 21.6661 8.55402 21.648C8.58422 21.63 8.60888 21.604 8.62532 21.5729C8.66776 21.504 8.6893 21.395 8.68994 21.2458C8.6907 21.0965 8.67023 20.9872 8.62854 20.9181C8.61243 20.8868 8.58803 20.8606 8.55802 20.8422C8.52801 20.8238 8.49352 20.814 8.45831 20.8138C8.4231 20.8136 8.38851 20.8231 8.35831 20.8412C8.32812 20.8593 8.30346 20.8853 8.28704 20.9164Z" fill="#070335"/>
<path d="M6.51873 20.6348C6.60392 20.5491 6.72695 20.4946 6.88781 20.4713L6.88893 20.2346L7.14505 20.2358L7.14393 20.464C7.24672 20.4709 7.34837 20.4897 7.44685 20.5199C7.53065 20.5442 7.61034 20.5809 7.68328 20.6287L7.54303 20.9394C7.47118 20.8926 7.39296 20.8563 7.31078 20.8317C7.22663 20.8048 7.13892 20.7907 7.05058 20.7898C6.88827 20.7891 6.80694 20.8292 6.80659 20.9103C6.80666 20.9314 6.81336 20.9519 6.82573 20.969C6.83811 20.9861 6.85555 20.9988 6.87558 21.0055C6.94769 21.0342 7.02224 21.0564 7.09834 21.0717C7.19383 21.0916 7.28783 21.118 7.37967 21.1508C7.45449 21.1786 7.5211 21.2248 7.57336 21.2851C7.62707 21.3464 7.6537 21.429 7.65324 21.5329C7.65369 21.5916 7.64203 21.6498 7.619 21.7038C7.59597 21.7578 7.56205 21.8065 7.51935 21.8468C7.43065 21.9338 7.30298 21.9869 7.13634 22.006L7.13521 22.2406L6.87907 22.2393L6.88022 22.009C6.80115 22.0018 6.72294 21.9871 6.64665 21.9652C6.57702 21.9456 6.51013 21.9173 6.44756 21.881L6.57927 21.5681C6.70514 21.6411 6.84731 21.6814 6.99279 21.6853C7.07684 21.6858 7.13811 21.6737 7.17661 21.6489C7.194 21.6393 7.20854 21.6254 7.21875 21.6084C7.22895 21.5914 7.23446 21.5719 7.23471 21.5521C7.23488 21.5124 7.21226 21.4824 7.16685 21.4622C7.09577 21.4345 7.02227 21.4135 6.9473 21.3993C6.85138 21.3797 6.75698 21.3532 6.66483 21.3201C6.59041 21.2921 6.52396 21.2464 6.47126 21.1869C6.41677 21.1261 6.38973 21.0439 6.39014 20.9402C6.38986 20.8832 6.40111 20.8268 6.4232 20.7744C6.4453 20.7219 6.47779 20.6744 6.51873 20.6348Z" fill="#070335"/>
<path d="M29.1659 33.6909C29.1538 33.7544 29.1275 33.8143 29.0889 33.8662C29.0502 33.918 29.0003 33.9603 28.9428 33.99C28.8648 34.0349 28.7756 34.0569 28.6856 34.0534C28.5884 34.0479 28.4949 34.0139 28.4168 33.9557C28.3175 33.881 28.236 33.7852 28.1781 33.6753C28.1261 33.5836 28.0855 33.4858 28.0572 33.3843C28.03 33.292 28.0178 33.1959 28.021 33.0998L28.3726 33.075C28.3673 33.1477 28.3732 33.2208 28.39 33.2918C28.4063 33.3633 28.4328 33.432 28.4689 33.4959C28.4962 33.5502 28.5386 33.5956 28.5909 33.6266C28.6111 33.6385 28.6342 33.6446 28.6576 33.6445C28.6811 33.6444 28.7041 33.638 28.7242 33.626C28.7446 33.6154 28.7616 33.5994 28.7734 33.5797C28.7852 33.5601 28.7913 33.5376 28.7911 33.5146C28.7923 33.4647 28.7663 33.3929 28.713 33.299L28.5131 32.9464L29.3095 32.5815L29.7788 33.4091L29.4947 33.5699L29.1979 33.0465L28.9991 33.1371L29.0485 33.2243C29.1515 33.4062 29.1907 33.5617 29.1659 33.6909Z" fill="#070335"/>
<path d="M29.2725 35.2483C29.1558 35.2171 29.0474 35.1375 28.9471 35.0097L28.7409 35.1264L28.6145 34.9037L28.8133 34.7911C28.7683 34.6987 28.734 34.6013 28.7113 34.501C28.6907 34.4162 28.683 34.3289 28.6884 34.2419L29.0279 34.209C29.019 34.3835 29.0588 34.557 29.1428 34.7102C29.2228 34.8513 29.2981 34.9018 29.3686 34.8619C29.3868 34.8514 29.4014 34.8354 29.4101 34.8162C29.4188 34.797 29.4212 34.7755 29.4171 34.7549C29.4062 34.6781 29.3884 34.6024 29.3638 34.5288C29.3336 34.4362 29.3098 34.3415 29.2927 34.2456C29.2796 34.1669 29.2866 34.0862 29.313 34.011C29.3396 33.9336 29.3981 33.8694 29.4885 33.8184C29.5393 33.7888 29.5956 33.77 29.6539 33.7631C29.7123 33.7563 29.7714 33.7615 29.8276 33.7785C29.9473 33.8122 30.0568 33.8964 30.1562 34.0311L30.3605 33.9155L30.4869 34.1383L30.2862 34.2518C30.3192 34.3239 30.3454 34.399 30.3643 34.476C30.3819 34.5462 30.3906 34.6183 30.3902 34.6906L30.0531 34.732C30.0538 34.5865 30.0181 34.4432 29.9491 34.3151C29.9078 34.2421 29.8668 34.195 29.8262 34.174C29.8093 34.1636 29.7899 34.158 29.77 34.1575C29.7502 34.1571 29.7306 34.1619 29.7132 34.1715C29.6785 34.1912 29.6638 34.2257 29.6689 34.2752C29.6802 34.3506 29.6985 34.4248 29.7235 34.4968C29.754 34.5898 29.7779 34.6848 29.795 34.7811C29.8077 34.8596 29.8011 34.9399 29.7756 35.0152C29.75 35.0925 29.692 35.1567 29.6017 35.2079C29.5524 35.2365 29.4978 35.2549 29.4412 35.2618C29.3846 35.2687 29.3272 35.2642 29.2725 35.2483Z" fill="#070335"/>
<path d="M15.0969 9.01964C15.1089 8.95615 15.1352 8.89623 15.1738 8.84442C15.2125 8.7926 15.2624 8.75025 15.3198 8.72057C15.3979 8.67561 15.487 8.65359 15.5771 8.65705C15.6744 8.66251 15.7679 8.69653 15.8459 8.75483C15.9452 8.82956 16.0267 8.92528 16.0846 9.03515C16.1366 9.12688 16.1771 9.22461 16.2054 9.32617C16.2327 9.41843 16.245 9.5145 16.2416 9.61065L15.8902 9.63555C15.8952 9.56279 15.8894 9.48968 15.8727 9.41867C15.8565 9.34719 15.8299 9.27846 15.7938 9.21464C15.7665 9.16027 15.7241 9.11487 15.6717 9.08381C15.6515 9.07199 15.6285 9.06581 15.605 9.06593C15.5816 9.06605 15.5586 9.07245 15.5385 9.08447C15.5181 9.09501 15.501 9.11101 15.4892 9.13069C15.4774 9.15037 15.4713 9.17295 15.4716 9.1959C15.4704 9.24571 15.4964 9.3176 15.5497 9.41157L15.7496 9.76411L14.9531 10.1291L14.4839 9.30137L14.768 9.14052L15.0647 9.66395L15.2636 9.57345L15.2143 9.48616C15.1111 9.30439 15.072 9.14888 15.0969 9.01964Z" fill="#070335"/>
<path d="M14.9903 7.46213C15.1071 7.49336 15.2156 7.57288 15.3159 7.70068L15.522 7.58406L15.6483 7.80682L15.4495 7.91929C15.4945 8.01178 15.5288 8.10914 15.5516 8.20946C15.5721 8.29419 15.5798 8.38154 15.5744 8.46856L15.2349 8.5014C15.2398 8.41592 15.2325 8.33016 15.2132 8.24674C15.1947 8.16036 15.1632 8.07725 15.1199 8.00024C15.0401 7.85917 14.9649 7.80861 14.8942 7.84856C14.876 7.8591 14.8615 7.8751 14.8528 7.89432C14.8441 7.91353 14.8417 7.93498 14.8458 7.95564C14.8567 8.03242 14.8745 8.10806 14.8991 8.18161C14.9292 8.27433 14.953 8.369 14.9702 8.46495C14.9833 8.54363 14.9762 8.62432 14.9498 8.69956C14.9233 8.7768 14.8649 8.84096 14.7744 8.89202C14.7236 8.92161 14.6673 8.94042 14.609 8.94729C14.5506 8.95417 14.4915 8.94895 14.4352 8.93196C14.3155 8.89836 14.2059 8.81414 14.1066 8.67929L13.9023 8.79489L13.7761 8.57214L13.9766 8.45862C13.9436 8.38652 13.9174 8.31146 13.8985 8.23445C13.881 8.16427 13.8722 8.09216 13.8726 8.01982L14.2099 7.97854C14.2091 8.12397 14.2447 8.26728 14.3137 8.39537C14.3551 8.46837 14.3961 8.51539 14.4367 8.53644C14.4536 8.54682 14.4729 8.55252 14.4928 8.55295C14.5126 8.55338 14.5322 8.54853 14.5495 8.5389C14.5842 8.5193 14.5991 8.48475 14.5939 8.43533C14.5826 8.3599 14.5644 8.28567 14.5395 8.2136C14.5089 8.12066 14.4849 8.02565 14.4677 7.92931C14.4552 7.85092 14.4618 7.77064 14.4872 7.69539C14.5128 7.61795 14.5708 7.5537 14.6612 7.50263C14.7105 7.47401 14.7651 7.45567 14.8216 7.44871C14.8782 7.44175 14.9356 7.44631 14.9903 7.46213Z" fill="#070335"/>
</g>
<path style="mix-blend-mode:multiply" opacity="0.7" d="M23.9179 22.0937C23.9179 22.4769 23.8045 22.8515 23.5919 23.1701C23.3794 23.4888 23.0773 23.7371 22.7238 23.8838C22.3703 24.0304 21.9814 24.0688 21.6061 23.994C21.2309 23.9193 20.8862 23.7347 20.6157 23.4638C20.3451 23.1928 20.1609 22.8476 20.0862 22.4717C20.0116 22.0959 20.0499 21.7063 20.1963 21.3523C20.3427 20.9983 20.5907 20.6957 20.9088 20.4828C21.2269 20.2699 21.6009 20.1562 21.9835 20.1563C22.4966 20.1563 22.9886 20.3604 23.3513 20.7237C23.7141 21.0871 23.9179 21.5799 23.9179 22.0937Z" fill="url(#paint50_radial_359_420)"/>
<path d="M22.9508 21.6094C22.9508 21.8968 22.8941 22.1777 22.7878 22.4167C22.6815 22.6557 22.5304 22.8419 22.3537 22.9519C22.177 23.0619 21.9825 23.0906 21.7949 23.0346C21.6073 22.9785 21.4349 22.8401 21.2996 22.6369C21.1644 22.4337 21.0723 22.1747 21.0349 21.8929C20.9976 21.611 21.0168 21.3188 21.09 21.0533C21.1632 20.7878 21.2872 20.5608 21.4462 20.4011C21.6053 20.2415 21.7923 20.1563 21.9836 20.1562C22.2401 20.1563 22.4861 20.3094 22.6675 20.5819C22.8489 20.8544 22.9508 21.224 22.9508 21.6094Z" fill="#070335"/>
<path d="M22.4672 4.65625L23.918 2.71875H21.0164L22.4672 4.65625Z" fill="url(#paint51_radial_359_420)"/>
</g>
<defs>
<radialGradient id="paint0_radial_359_420" cx="0" cy="0" r="1" gradientUnits="userSpaceOnUse" gradientTransform="translate(30.9578 13.9037) scale(38.1767 38.1422)">
<stop offset="0.81374" stop-color="#FFCA4F"/>
<stop offset="0.848" stop-color="#FCC54B"/>
<stop offset="0.88851" stop-color="#F3B73F"/>
<stop offset="0.93219" stop-color="#E39F2B"/>
<stop offset="0.97781" stop-color="#CE7E10"/>
<stop offset="1" stop-color="#C26B00"/>
</radialGradient>
<radialGradient id="paint1_radial_359_420" cx="0" cy="0" r="1" gradientUnits="userSpaceOnUse" gradientTransform="translate(22.1454 40.9598) scale(0.475511 0.475082)">
<stop offset="0.21473" stop-color="#AD0004"/>
<stop offset="0.38821" stop-color="#A80004"/>
<stop offset="0.5933" stop-color="#9A0004"/>
<stop offset="0.81352" stop-color="#820005"/>
<stop offset="1" stop-color="#680005"/>
</radialGradient>
<radialGradient id="paint2_radial_359_420" cx="0" cy="0" r="1" gradientUnits="userSpaceOnUse" gradientTransform="translate(17.0686 40.2991) scale(0.475589 0.47516)">
<stop offset="0.21473" stop-color="#AD0004"/>
<stop offset="0.38821" stop-color="#A80004"/>
<stop offset="0.5933" stop-color="#9A0004"/>
<stop offset="0.81352" stop-color="#820005"/>
<stop offset="1" stop-color="#680005"/>
</radialGradient>
<radialGradient id="paint3_radial_359_420" cx="0" cy="0" r="1" gradientUnits="userSpaceOnUse" gradientTransform="translate(27.2214 40.2934) scale(0.475656 0.475226)">
<stop offset="0.21473" stop-color="#AD0004"/>
<stop offset="0.38821" stop-color="#A80004"/>
<stop offset="0.5933" stop-color="#9A0004"/>
<stop offset="0.81352" stop-color="#820005"/>
<stop offset="1" stop-color="#680005"/>
</radialGradient>
<radialGradient id="paint4_radial_359_420" cx="0" cy="0" r="1" gradientUnits="userSpaceOnUse" gradientTransform="translate(12.3365 38.3434) scale(0.475556 0.475126)">
<stop offset="0.21473" stop-color="#AD0004"/>
<stop offset="0.38821" stop-color="#A80004"/>
<stop offset="0.5933" stop-color="#9A0004"/>
<stop offset="0.81352" stop-color="#820005"/>
<stop offset="1" stop-color="#680005"/>
</radialGradient>
<radialGradient id="paint5_radial_359_420" cx="0" cy="0" r="1" gradientUnits="userSpaceOnUse" gradientTransform="translate(31.9502 38.3336) scale(0.475526 0.475096)">
<stop offset="0.21473" stop-color="#AD0004"/>
<stop offset="0.38821" stop-color="#A80004"/>
<stop offset="0.5933" stop-color="#9A0004"/>
<stop offset="0.81352" stop-color="#820005"/>
<stop offset="1" stop-color="#680005"/>
</radialGradient>
<radialGradient id="paint6_radial_359_420" cx="0" cy="0" r="1" gradientUnits="userSpaceOnUse" gradientTransform="translate(8.27361 35.229) scale(0.475501 0.475072)">
<stop offset="0.21473" stop-color="#AD0004"/>
<stop offset="0.38821" stop-color="#A80004"/>
<stop offset="0.5933" stop-color="#9A0004"/>
<stop offset="0.81352" stop-color="#820005"/>
<stop offset="1" stop-color="#680005"/>
</radialGradient>
<radialGradient id="paint7_radial_359_420" cx="0" cy="0" r="1" gradientUnits="userSpaceOnUse" gradientTransform="translate(36.0097 35.2154) scale(0.475612 0.475182)">
<stop offset="0.21473" stop-color="#AD0004"/>
<stop offset="0.38821" stop-color="#A80004"/>
<stop offset="0.5933" stop-color="#9A0004"/>
<stop offset="0.81352" stop-color="#820005"/>
<stop offset="1" stop-color="#680005"/>
</radialGradient>
<radialGradient id="paint8_radial_359_420" cx="0" cy="0" r="1" gradientUnits="userSpaceOnUse" gradientTransform="translate(5.1511 31.1749) scale(0.475725 0.475295)">
<stop offset="0.21473" stop-color="#AD0004"/>
<stop offset="0.38821" stop-color="#A80004"/>
<stop offset="0.5933" stop-color="#9A0004"/>
<stop offset="0.81352" stop-color="#820005"/>
<stop offset="1" stop-color="#680005"/>
</radialGradient>
<radialGradient id="paint9_radial_359_420" cx="0" cy="0" r="1" gradientUnits="userSpaceOnUse" gradientTransform="translate(39.1286 31.1578) scale(0.475394 0.474965)">
<stop offset="0.21473" stop-color="#AD0004"/>
<stop offset="0.38821" stop-color="#A80004"/>
<stop offset="0.5933" stop-color="#9A0004"/>
<stop offset="0.81352" stop-color="#820005"/>
<stop offset="1" stop-color="#680005"/>
</radialGradient>
<radialGradient id="paint10_radial_359_420" cx="0" cy="0" r="1" gradientUnits="userSpaceOnUse" gradientTransform="translate(3.18563 26.4517) scale(0.47555 0.47512)">
<stop offset="0.21473" stop-color="#AD0004"/>
<stop offset="0.38821" stop-color="#A80004"/>
<stop offset="0.5933" stop-color="#9A0004"/>
<stop offset="0.81352" stop-color="#820005"/>
<stop offset="1" stop-color="#680005"/>
</radialGradient>
<radialGradient id="paint11_radial_359_420" cx="0" cy="0" r="1" gradientUnits="userSpaceOnUse" gradientTransform="translate(41.0889 26.4312) scale(0.47546 0.475031)">
<stop offset="0.21473" stop-color="#AD0004"/>
<stop offset="0.38821" stop-color="#A80004"/>
<stop offset="0.5933" stop-color="#9A0004"/>
<stop offset="0.81352" stop-color="#820005"/>
<stop offset="1" stop-color="#680005"/>
</radialGradient>
<radialGradient id="paint12_radial_359_420" cx="0" cy="0" r="1" gradientUnits="userSpaceOnUse" gradientTransform="translate(2.51702 21.3815) scale(0.475488 0.475059)">
<stop offset="0.21473" stop-color="#AD0004"/>
<stop offset="0.38821" stop-color="#A80004"/>
<stop offset="0.5933" stop-color="#9A0004"/>
<stop offset="0.81352" stop-color="#820005"/>
<stop offset="1" stop-color="#680005"/>
</radialGradient>
<radialGradient id="paint13_radial_359_420" cx="0" cy="0" r="1" gradientUnits="userSpaceOnUse" gradientTransform="translate(41.752 21.3377) scale(0.486585 0.486146)">
<stop offset="0.21473" stop-color="#AD0004"/>
<stop offset="0.38821" stop-color="#A80004"/>
<stop offset="0.5933" stop-color="#9A0004"/>
<stop offset="0.81352" stop-color="#820005"/>
<stop offset="1" stop-color="#680005"/>
</radialGradient>
<radialGradient id="paint14_radial_359_420" cx="0" cy="0" r="1" gradientUnits="userSpaceOnUse" gradientTransform="translate(3.17486 16.3081) scale(0.475745 0.475315)">
<stop offset="0.21473" stop-color="#AD0004"/>
<stop offset="0.38821" stop-color="#A80004"/>
<stop offset="0.5933" stop-color="#9A0004"/>
<stop offset="0.81352" stop-color="#820005"/>
<stop offset="1" stop-color="#680005"/>
</radialGradient>
<radialGradient id="paint15_radial_359_420" cx="0" cy="0" r="1" gradientUnits="userSpaceOnUse" gradientTransform="translate(41.0785 16.2471) scale(0.475581 0.475152)">
<stop offset="0.21473" stop-color="#AD0004"/>
<stop offset="0.38821" stop-color="#A80004"/>
<stop offset="0.5933" stop-color="#9A0004"/>
<stop offset="0.81352" stop-color="#820005"/>
<stop offset="1" stop-color="#680005"/>
</radialGradient>
<radialGradient id="paint16_radial_359_420" cx="0" cy="0" r="1" gradientUnits="userSpaceOnUse" gradientTransform="translate(5.13057 11.5795) scale(0.47573 0.475299)">
<stop offset="0.21473" stop-color="#AD0004"/>
<stop offset="0.38821" stop-color="#A80004"/>
<stop offset="0.5933" stop-color="#9A0004"/>
<stop offset="0.81352" stop-color="#820005"/>
<stop offset="1" stop-color="#680005"/>
</radialGradient>
<radialGradient id="paint17_radial_359_420" cx="0" cy="0" r="1" gradientUnits="userSpaceOnUse" gradientTransform="translate(39.1078 11.5259) scale(0.475654 0.475225)">
<stop offset="0.21473" stop-color="#AD0004"/>
<stop offset="0.38821" stop-color="#A80004"/>
<stop offset="0.5933" stop-color="#9A0004"/>
<stop offset="0.81352" stop-color="#820005"/>
<stop offset="1" stop-color="#680005"/>
</radialGradient>
<radialGradient id="paint18_radial_359_420" cx="0" cy="0" r="1" gradientUnits="userSpaceOnUse" gradientTransform="translate(8.24479 7.51827) scale(0.475328 0.474898)">
<stop offset="0.21473" stop-color="#AD0004"/>
<stop offset="0.38821" stop-color="#A80004"/>
<stop offset="0.5933" stop-color="#9A0004"/>
<stop offset="0.81352" stop-color="#820005"/>
<stop offset="1" stop-color="#680005"/>
</radialGradient>
<radialGradient id="paint19_radial_359_420" cx="0" cy="0" r="1" gradientUnits="userSpaceOnUse" gradientTransform="translate(35.981 7.47534) scale(0.475734 0.475304)">
<stop offset="0.21473" stop-color="#AD0004"/>
<stop offset="0.38821" stop-color="#A80004"/>
<stop offset="0.5933" stop-color="#9A0004"/>
<stop offset="0.81352" stop-color="#820005"/>
<stop offset="1" stop-color="#680005"/>
</radialGradient>
<radialGradient id="paint20_radial_359_420" cx="0" cy="0" r="1" gradientUnits="userSpaceOnUse" gradientTransform="translate(12.3005 4.39709) scale(0.47587 0.47544)">
<stop offset="0.21473" stop-color="#AD0004"/>
<stop offset="0.38821" stop-color="#A80004"/>
<stop offset="0.5933" stop-color="#9A0004"/>
<stop offset="0.81352" stop-color="#820005"/>
<stop offset="1" stop-color="#680005"/>
</radialGradient>
<radialGradient id="paint21_radial_359_420" cx="0" cy="0" r="1" gradientUnits="userSpaceOnUse" gradientTransform="translate(31.9145 4.36535) scale(0.475665 0.475236)">
<stop offset="0.21473" stop-color="#AD0004"/>
<stop offset="0.38821" stop-color="#A80004"/>
<stop offset="0.5933" stop-color="#9A0004"/>
<stop offset="0.81352" stop-color="#820005"/>
<stop offset="1" stop-color="#680005"/>
</radialGradient>
<radialGradient id="paint22_radial_359_420" cx="0" cy="0" r="1" gradientUnits="userSpaceOnUse" gradientTransform="translate(17.0272 2.43057) scale(0.475865 0.475435)">
<stop offset="0.21473" stop-color="#AD0004"/>
<stop offset="0.38821" stop-color="#A80004"/>
<stop offset="0.5933" stop-color="#9A0004"/>
<stop offset="0.81352" stop-color="#820005"/>
<stop offset="1" stop-color="#680005"/>
</radialGradient>
<radialGradient id="paint23_radial_359_420" cx="0" cy="0" r="1" gradientUnits="userSpaceOnUse" gradientTransform="translate(27.1802 2.41383) scale(0.475589 0.475159)">
<stop offset="0.21473" stop-color="#AD0004"/>
<stop offset="0.38821" stop-color="#A80004"/>
<stop offset="0.5933" stop-color="#9A0004"/>
<stop offset="0.81352" stop-color="#820005"/>
<stop offset="1" stop-color="#680005"/>
</radialGradient>
<radialGradient id="paint24_radial_359_420" cx="0" cy="0" r="1" gradientUnits="userSpaceOnUse" gradientTransform="translate(22.1025 1.75938) scale(0.475975 0.475544)">
<stop offset="0.21473" stop-color="#AD0004"/>
<stop offset="0.38821" stop-color="#A80004"/>
<stop offset="0.5933" stop-color="#9A0004"/>
<stop offset="0.81352" stop-color="#820005"/>
<stop offset="1" stop-color="#680005"/>
</radialGradient>
<radialGradient id="paint25_radial_359_420" cx="0" cy="0" r="1" gradientUnits="userSpaceOnUse" gradientTransform="translate(22.4672 40.9844) scale(0.484101 0.483883)">
<stop offset="0.46721" stop-color="#FFCA4F"/>
<stop offset="0.56519" stop-color="#FCC54B"/>
<stop offset="0.68109" stop-color="#F3B73F"/>
<stop offset="0.80602" stop-color="#E39F2B"/>
<stop offset="0.93652" stop-color="#CE7E10"/>
<stop offset="1" stop-color="#C26B00"/>
</radialGradient>
<radialGradient id="paint26_radial_359_420" cx="0" cy="0" r="1" gradientUnits="userSpaceOnUse" gradientTransform="translate(16.664 40.9844) scale(0.483546 0.484644)">
<stop offset="0.46721" stop-color="#FFCA4F"/>
<stop offset="0.56519" stop-color="#FCC54B"/>
<stop offset="0.68109" stop-color="#F3B73F"/>
<stop offset="0.80602" stop-color="#E39F2B"/>
<stop offset="0.93652" stop-color="#CE7E10"/>
<stop offset="1" stop-color="#C26B00"/>
</radialGradient>
<radialGradient id="paint27_radial_359_420" cx="0" cy="0" r="1" gradientUnits="userSpaceOnUse" gradientTransform="translate(27.3032 40.9843) scale(0.483453 0.484779)">
<stop offset="0.46721" stop-color="#FFCA4F"/>
<stop offset="0.56519" stop-color="#FCC54B"/>
<stop offset="0.68109" stop-color="#F3B73F"/>
<stop offset="0.80602" stop-color="#E39F2B"/>
<stop offset="0.93652" stop-color="#CE7E10"/>
<stop offset="1" stop-color="#C26B00"/>
</radialGradient>
<radialGradient id="paint28_radial_359_420" cx="0" cy="0" r="1" gradientUnits="userSpaceOnUse" gradientTransform="translate(11.8279 39.0468) scale(0.483575 0.484462)">
<stop offset="0.46721" stop-color="#FFCA4F"/>
<stop offset="0.56519" stop-color="#FCC54B"/>
<stop offset="0.68109" stop-color="#F3B73F"/>
<stop offset="0.80602" stop-color="#E39F2B"/>
<stop offset="0.93652" stop-color="#CE7E10"/>
<stop offset="1" stop-color="#C26B00"/>
</radialGradient>
<radialGradient id="paint29_radial_359_420" cx="0" cy="0" r="1" gradientUnits="userSpaceOnUse" gradientTransform="translate(32.1392 39.0469) scale(0.483823 0.48413)">
<stop offset="0.46721" stop-color="#FFCA4F"/>
<stop offset="0.56519" stop-color="#FCC54B"/>
<stop offset="0.68109" stop-color="#F3B73F"/>
<stop offset="0.80602" stop-color="#E39F2B"/>
<stop offset="0.93652" stop-color="#CE7E10"/>
<stop offset="1" stop-color="#C26B00"/>
</radialGradient>
<radialGradient id="paint30_radial_359_420" cx="0" cy="0" r="1" gradientUnits="userSpaceOnUse" gradientTransform="translate(7.95895 35.1719) scale(0.483595 0.484384)">
<stop offset="0.46721" stop-color="#FFCA4F"/>
<stop offset="0.56519" stop-color="#FCC54B"/>
<stop offset="0.68109" stop-color="#F3B73F"/>
<stop offset="0.80602" stop-color="#E39F2B"/>
<stop offset="0.93652" stop-color="#CE7E10"/>
<stop offset="1" stop-color="#C26B00"/>
</radialGradient>
<radialGradient id="paint31_radial_359_420" cx="0" cy="0" r="1" gradientUnits="userSpaceOnUse" gradientTransform="translate(36.0083 35.1719) scale(0.483737 0.484243)">
<stop offset="0.46721" stop-color="#FFCA4F"/>
<stop offset="0.56519" stop-color="#FCC54B"/>
<stop offset="0.68109" stop-color="#F3B73F"/>
<stop offset="0.80602" stop-color="#E39F2B"/>
<stop offset="0.93652" stop-color="#CE7E10"/>
<stop offset="1" stop-color="#C26B00"/>
</radialGradient>
<radialGradient id="paint32_radial_359_420" cx="0" cy="0" r="1" gradientUnits="userSpaceOnUse" gradientTransform="translate(5.05737 31.2968) scale(0.483549 0.484693)">
<stop offset="0.46721" stop-color="#FFCA4F"/>
<stop offset="0.56519" stop-color="#FCC54B"/>
<stop offset="0.68109" stop-color="#F3B73F"/>
<stop offset="0.80602" stop-color="#E39F2B"/>
<stop offset="0.93652" stop-color="#CE7E10"/>
<stop offset="1" stop-color="#C26B00"/>
</radialGradient>
<radialGradient id="paint33_radial_359_420" cx="0" cy="0" r="1" gradientUnits="userSpaceOnUse" gradientTransform="translate(39.8773 31.2968) scale(0.483804 0.484333)">
<stop offset="0.46721" stop-color="#FFCA4F"/>
<stop offset="0.56519" stop-color="#FCC54B"/>
<stop offset="0.68109" stop-color="#F3B73F"/>
<stop offset="0.80602" stop-color="#E39F2B"/>
<stop offset="0.93652" stop-color="#CE7E10"/>
<stop offset="1" stop-color="#C26B00"/>
</radialGradient>
<radialGradient id="paint34_radial_359_420" cx="0" cy="0" r="1" gradientUnits="userSpaceOnUse" gradientTransform="translate(3.123 26.4531) scale(0.483972 0.484254)">
<stop offset="0.46721" stop-color="#FFCA4F"/>
<stop offset="0.56519" stop-color="#FCC54B"/>
<stop offset="0.68109" stop-color="#F3B73F"/>
<stop offset="0.80602" stop-color="#E39F2B"/>
<stop offset="0.93652" stop-color="#CE7E10"/>
<stop offset="1" stop-color="#C26B00"/>
</radialGradient>
<radialGradient id="paint35_radial_359_420" cx="0" cy="0" r="1" gradientUnits="userSpaceOnUse" gradientTransform="translate(41.8115 26.453) scale(0.483647 0.48458)">
<stop offset="0.46721" stop-color="#FFCA4F"/>
<stop offset="0.56519" stop-color="#FCC54B"/>
<stop offset="0.68109" stop-color="#F3B73F"/>
<stop offset="0.80602" stop-color="#E39F2B"/>
<stop offset="0.93652" stop-color="#CE7E10"/>
<stop offset="1" stop-color="#C26B00"/>
</radialGradient>
<radialGradient id="paint36_radial_359_420" cx="0" cy="0" r="1" gradientUnits="userSpaceOnUse" gradientTransform="translate(2.15573 21.6094) scale(0.484085 0.483902)">
<stop offset="0.46721" stop-color="#FFCA4F"/>
<stop offset="0.56519" stop-color="#FCC54B"/>
<stop offset="0.68109" stop-color="#F3B73F"/>
<stop offset="0.80602" stop-color="#E39F2B"/>
<stop offset="0.93652" stop-color="#CE7E10"/>
<stop offset="1" stop-color="#C26B00"/>
</radialGradient>
<radialGradient id="paint37_radial_359_420" cx="0" cy="0" r="1" gradientUnits="userSpaceOnUse" gradientTransform="translate(41.8115 21.6094) scale(0.49432 0.474275)">
<stop offset="0.46721" stop-color="#FFCA4F"/>
<stop offset="0.56519" stop-color="#FCC54B"/>
<stop offset="0.68109" stop-color="#F3B73F"/>
<stop offset="0.80602" stop-color="#E39F2B"/>
<stop offset="0.93652" stop-color="#CE7E10"/>
<stop offset="1" stop-color="#C26B00"/>
</radialGradient>
<radialGradient id="paint38_radial_359_420" cx="0" cy="0" r="1" gradientUnits="userSpaceOnUse" gradientTransform="translate(3.12276 15.7967) scale(0.483699 0.484673)">
<stop offset="0.46721" stop-color="#FFCA4F"/>
<stop offset="0.56519" stop-color="#FCC54B"/>
<stop offset="0.68109" stop-color="#F3B73F"/>
<stop offset="0.80602" stop-color="#E39F2B"/>
<stop offset="0.93652" stop-color="#CE7E10"/>
<stop offset="1" stop-color="#C26B00"/>
</radialGradient>
<radialGradient id="paint39_radial_359_420" cx="0" cy="0" r="1" gradientUnits="userSpaceOnUse" gradientTransform="translate(41.8118 15.7968) scale(0.483833 0.484365)">
<stop offset="0.46721" stop-color="#FFCA4F"/>
<stop offset="0.56519" stop-color="#FCC54B"/>
<stop offset="0.68109" stop-color="#F3B73F"/>
<stop offset="0.80602" stop-color="#E39F2B"/>
<stop offset="0.93652" stop-color="#CE7E10"/>
<stop offset="1" stop-color="#C26B00"/>
</radialGradient>
<radialGradient id="paint40_radial_359_420" cx="0" cy="0" r="1" gradientUnits="userSpaceOnUse" gradientTransform="translate(5.05734 10.953) scale(0.483562 0.484705)">
<stop offset="0.46721" stop-color="#FFCA4F"/>
<stop offset="0.56519" stop-color="#FCC54B"/>
<stop offset="0.68109" stop-color="#F3B73F"/>
<stop offset="0.80602" stop-color="#E39F2B"/>
<stop offset="0.93652" stop-color="#CE7E10"/>
<stop offset="1" stop-color="#C26B00"/>
</radialGradient>
<radialGradient id="paint41_radial_359_420" cx="0" cy="0" r="1" gradientUnits="userSpaceOnUse" gradientTransform="translate(39.8772 10.9532) scale(0.483585 0.484247)">
<stop offset="0.46721" stop-color="#FFCA4F"/>
<stop offset="0.56519" stop-color="#FCC54B"/>
<stop offset="0.68109" stop-color="#F3B73F"/>
<stop offset="0.80602" stop-color="#E39F2B"/>
<stop offset="0.93652" stop-color="#CE7E10"/>
<stop offset="1" stop-color="#C26B00"/>
</radialGradient>
<radialGradient id="paint42_radial_359_420" cx="0" cy="0" r="1" gradientUnits="userSpaceOnUse" gradientTransform="translate(7.95895 7.07812) scale(0.483421 0.48456)">
<stop offset="0.46721" stop-color="#FFCA4F"/>
<stop offset="0.56519" stop-color="#FCC54B"/>
<stop offset="0.68109" stop-color="#F3B73F"/>
<stop offset="0.80602" stop-color="#E39F2B"/>
<stop offset="0.93652" stop-color="#CE7E10"/>
<stop offset="1" stop-color="#C26B00"/>
</radialGradient>
<radialGradient id="paint43_radial_359_420" cx="0" cy="0" r="1" gradientUnits="userSpaceOnUse" gradientTransform="translate(36.0083 7.07812) scale(0.483983 0.483999)">
<stop offset="0.46721" stop-color="#FFCA4F"/>
<stop offset="0.56519" stop-color="#FCC54B"/>
<stop offset="0.68109" stop-color="#F3B73F"/>
<stop offset="0.80602" stop-color="#E39F2B"/>
<stop offset="0.93652" stop-color="#CE7E10"/>
<stop offset="1" stop-color="#C26B00"/>
</radialGradient>
<radialGradient id="paint44_radial_359_420" cx="0" cy="0" r="1" gradientUnits="userSpaceOnUse" gradientTransform="translate(11.8278 4.17178) scale(0.48389 0.48415)">
<stop offset="0.46721" stop-color="#FFCA4F"/>
<stop offset="0.56519" stop-color="#FCC54B"/>
<stop offset="0.68109" stop-color="#F3B73F"/>
<stop offset="0.80602" stop-color="#E39F2B"/>
<stop offset="0.93652" stop-color="#CE7E10"/>
<stop offset="1" stop-color="#C26B00"/>
</radialGradient>
<radialGradient id="paint45_radial_359_420" cx="0" cy="0" r="1" gradientUnits="userSpaceOnUse" gradientTransform="translate(32.1395 4.17178) scale(0.483608 0.484595)">
<stop offset="0.46721" stop-color="#FFCA4F"/>
<stop offset="0.56519" stop-color="#FCC54B"/>
<stop offset="0.68109" stop-color="#F3B73F"/>
<stop offset="0.80602" stop-color="#E39F2B"/>
<stop offset="0.93652" stop-color="#CE7E10"/>
<stop offset="1" stop-color="#C26B00"/>
</radialGradient>
<radialGradient id="paint46_radial_359_420" cx="0" cy="0" r="1" gradientUnits="userSpaceOnUse" gradientTransform="translate(16.6641 2.23427) scale(0.483585 0.48468)">
<stop offset="0.46721" stop-color="#FFCA4F"/>
<stop offset="0.56519" stop-color="#FCC54B"/>
<stop offset="0.68109" stop-color="#F3B73F"/>
<stop offset="0.80602" stop-color="#E39F2B"/>
<stop offset="0.93652" stop-color="#CE7E10"/>
<stop offset="1" stop-color="#C26B00"/>
</radialGradient>
<radialGradient id="paint47_radial_359_420" cx="0" cy="0" r="1" gradientUnits="userSpaceOnUse" gradientTransform="translate(27.3033 2.23427) scale(0.483448 0.484749)">
<stop offset="0.46721" stop-color="#FFCA4F"/>
<stop offset="0.56519" stop-color="#FCC54B"/>
<stop offset="0.68109" stop-color="#F3B73F"/>
<stop offset="0.80602" stop-color="#E39F2B"/>
<stop offset="0.93652" stop-color="#CE7E10"/>
<stop offset="1" stop-color="#C26B00"/>
</radialGradient>
<radialGradient id="paint48_radial_359_420" cx="0" cy="0" r="1" gradientUnits="userSpaceOnUse" gradientTransform="translate(22.4672 1.26563) scale(0.483577 0.484404)">
<stop offset="0.46721" stop-color="#FFCA4F"/>
<stop offset="0.56519" stop-color="#FCC54B"/>
<stop offset="0.68109" stop-color="#F3B73F"/>
<stop offset="0.80602" stop-color="#E39F2B"/>
<stop offset="0.93652" stop-color="#CE7E10"/>
<stop offset="1" stop-color="#C26B00"/>
</radialGradient>
<radialGradient id="paint49_radial_359_420" cx="0" cy="0" r="1" gradientUnits="userSpaceOnUse" gradientTransform="translate(30.5971 27.9332) rotate(100.898) scale(35.6637 35.6937)">
<stop offset="0.81374" stop-color="#FFCA4F"/>
<stop offset="0.848" stop-color="#FCC54B"/>
<stop offset="0.88851" stop-color="#F3B73F"/>
<stop offset="0.93219" stop-color="#E39F2B"/>
<stop offset="0.97781" stop-color="#CE7E10"/>
<stop offset="1" stop-color="#C26B00"/>
</radialGradient>
<radialGradient id="paint50_radial_359_420" cx="0" cy="0" r="1" gradientUnits="userSpaceOnUse" gradientTransform="translate(21.9835 22.0937) scale(1.93441 1.93748)">
<stop offset="0.33842" stop-color="#400500"/>
<stop offset="0.36817" stop-color="#4F1814"/>
<stop offset="0.46958" stop-color="#7D5451"/>
<stop offset="0.57017" stop-color="#A48886"/>
<stop offset="0.66756" stop-color="#C5B3B2"/>
<stop offset="0.76109" stop-color="#DED4D3"/>
<stop offset="0.84977" stop-color="#F0ECEB"/>
<stop offset="0.93156" stop-color="#FBFAFA"/>
<stop offset="1" stop-color="white"/>
</radialGradient>
<radialGradient id="paint51_radial_359_420" cx="0" cy="0" r="1" gradientUnits="userSpaceOnUse" gradientTransform="translate(22.2049 3.01433) scale(4.52895 3.4919)">
<stop offset="0.81374" stop-color="#FFCA4F"/>
<stop offset="0.848" stop-color="#FCC54B"/>
<stop offset="0.88851" stop-color="#F3B73F"/>
<stop offset="0.93219" stop-color="#E39F2B"/>
<stop offset="0.97781" stop-color="#CE7E10"/>
<stop offset="1" stop-color="#C26B00"/>
</radialGradient>
<clipPath id="clip0_359_420">
<rect width="44" height="44" fill="white"/>
</clipPath>
</defs>
</svg>
