<svg width="24" height="24" viewBox="0 0 24 24" fill="none" xmlns="http://www.w3.org/2000/svg">
<path d="M4.53589 11.465L11.4299 4.57C11.9164 4.07795 12.4954 3.68694 13.1336 3.41944C13.7717 3.15194 14.4565 3.01324 15.1485 3.01131C15.8404 3.00938 16.5259 3.14426 17.1656 3.40819C17.8052 3.67213 18.3864 4.05991 18.8757 4.54923C19.3649 5.03856 19.7526 5.61977 20.0165 6.25946C20.2803 6.89915 20.4151 7.58468 20.4131 8.27664C20.4111 8.9686 20.2723 9.65334 20.0047 10.2915C19.7371 10.9296 19.346 11.5085 18.8539 11.995L10.8999 19.95C10.2435 20.6064 9.35319 20.9752 8.42489 20.9752C7.49658 20.9752 6.6063 20.6064 5.94989 19.95C5.29348 19.2936 4.92471 18.4033 4.92471 17.475C4.92471 16.5467 5.29348 15.6564 5.94989 15L13.9059 7.046C14.2368 6.73219 14.6772 6.55997 15.1333 6.56603C15.5893 6.57209 16.025 6.75595 16.3474 7.07844C16.6699 7.40094 16.8538 7.83659 16.8599 8.29263C16.8659 8.74867 16.6937 9.18905 16.3799 9.52L9.48489 16.414" stroke="#070335" stroke-width="2" stroke-linecap="round" stroke-linejoin="round"/>
</svg>
