<svg width="24" height="24" viewBox="0 0 24 24" fill="none" xmlns="http://www.w3.org/2000/svg">
<g clip-path="url(#clip0_564_8)">
<path d="M5.14265 12V7.49142C5.15604 6.60519 5.34417 5.73031 5.69626 4.91691C6.04835 4.10351 6.55748 3.36758 7.19447 2.75128C7.83147 2.13499 8.58382 1.65044 9.4084 1.32541C10.233 1.00037 11.1136 0.841243 11.9998 0.857131C12.886 0.841243 13.7666 1.00037 14.5912 1.32541C15.4158 1.65044 16.1681 2.13499 16.8051 2.75128C17.4421 3.36758 17.9512 4.10351 18.3033 4.91691C18.6554 5.73031 18.8435 6.60519 18.8569 7.49142V12M15.4284 21C16.3377 21 17.2097 20.6388 17.8527 19.9958C18.4957 19.3528 18.8569 18.4807 18.8569 17.5714V13.7143M15.4284 21C15.4284 21.5683 15.2026 22.1134 14.8007 22.5152C14.3989 22.9171 13.8538 23.1428 13.2855 23.1428H10.7141C10.1458 23.1428 9.60071 22.9171 9.19885 22.5152C8.79698 22.1134 8.57122 21.5683 8.57122 21C8.57122 20.4317 8.79698 19.8866 9.19885 19.4848C9.60071 19.0829 10.1458 18.8571 10.7141 18.8571H13.2855C13.8538 18.8571 14.3989 19.0829 14.8007 19.4848C15.2026 19.8866 15.4284 20.4317 15.4284 21ZM2.57122 9.42856H4.28551C4.51283 9.42856 4.73085 9.51887 4.8916 9.67961C5.05234 9.84036 5.14265 10.0584 5.14265 10.2857V15.4286C5.14265 15.6559 5.05234 15.8739 4.8916 16.0347C4.73085 16.1954 4.51283 16.2857 4.28551 16.2857H2.57122C2.11656 16.2857 1.68053 16.1051 1.35904 15.7836C1.03755 15.4621 0.856934 15.0261 0.856934 14.5714V11.1428C0.856934 10.6882 1.03755 10.2522 1.35904 9.93066C1.68053 9.60917 2.11656 9.42856 2.57122 9.42856ZM21.4284 16.2857H19.7141C19.4867 16.2857 19.2687 16.1954 19.108 16.0347C18.9472 15.8739 18.8569 15.6559 18.8569 15.4286V10.2857C18.8569 10.0584 18.9472 9.84036 19.108 9.67961C19.2687 9.51887 19.4867 9.42856 19.7141 9.42856H21.4284C21.883 9.42856 22.3191 9.60917 22.6405 9.93066C22.962 10.2522 23.1426 10.6882 23.1426 11.1428V14.5714C23.1426 15.0261 22.962 15.4621 22.6405 15.7836C22.3191 16.1051 21.883 16.2857 21.4284 16.2857Z" stroke="#070335" stroke-linecap="round" stroke-linejoin="round"/>
</g>
<defs>
<clipPath id="clip0_564_8">
<rect width="24" height="24" fill="white"/>
</clipPath>
</defs>
</svg>
