<svg width="40" height="40" viewBox="0 0 40 40" fill="none" xmlns="http://www.w3.org/2000/svg">
<path d="M11.25 13.75C11.25 11.4294 12.1719 9.20377 13.8128 7.56283C15.4538 5.92188 17.6794 5.00001 20 5.00001C22.3206 5.00001 24.5462 5.92188 26.1872 7.56283C27.8281 9.20377 28.75 11.4294 28.75 13.75C28.75 14.0815 28.8817 14.3995 29.1161 14.6339C29.3505 14.8683 29.6685 15 30 15C30.3315 15 30.6495 14.8683 30.8839 14.6339C31.1183 14.3995 31.25 14.0815 31.25 13.75C31.2498 11.8314 30.759 9.94475 29.8242 8.26933C28.8893 6.59391 27.5415 5.18541 25.9089 4.1777C24.2762 3.16999 22.413 2.59657 20.4963 2.51193C18.5796 2.42729 16.6731 2.83425 14.9579 3.69413C13.2428 4.55401 11.7761 5.83823 10.6973 7.42473C9.61837 9.01123 8.96315 10.8473 8.79387 12.7584C8.6246 14.6695 8.94689 16.5922 9.73012 18.3436C10.5133 20.095 11.7315 21.6171 13.2687 22.765C14.587 23.7497 16.1051 24.4333 17.7163 24.7675C17.94 25.2695 18.323 25.6837 18.806 25.9462C19.2889 26.2086 19.8448 26.3046 20.3878 26.2192C20.9307 26.1339 21.4304 25.872 21.8096 25.4741C22.1887 25.0762 22.4261 24.5644 22.4852 24.018C22.5442 23.4715 22.4215 22.9209 22.136 22.4512C21.8506 21.9815 21.4183 21.619 20.9061 21.4197C20.3939 21.2204 19.8303 21.1954 19.3025 21.3487C18.7747 21.502 18.3121 21.8249 17.9862 22.2675C16.0682 21.8139 14.3595 20.7261 13.1369 19.1802C11.9143 17.6343 11.2495 15.7209 11.25 13.75ZM12.5 13.75C12.5005 12.3702 12.8816 11.0174 13.6014 9.84022C14.3211 8.66307 15.3517 7.70729 16.5796 7.07804C17.8075 6.44879 19.1852 6.17047 20.5611 6.2737C21.937 6.37693 23.2578 6.8577 24.378 7.66312C25.4983 8.46854 26.3747 9.56739 26.9108 10.8388C27.4469 12.1101 27.6218 13.5047 27.4164 14.8691C27.211 16.2335 26.6333 17.5148 25.7467 18.572C24.8601 19.6292 23.699 20.4213 22.3913 20.8613C21.7187 20.3046 20.873 20 20 20C19.0913 20 18.2587 20.3238 17.6087 20.8613C16.1197 20.3604 14.8255 19.4045 13.9089 18.1286C12.9923 16.8526 12.4994 15.3211 12.5 13.75ZM20 27.5C20.6001 27.5003 21.1915 27.3566 21.7245 27.081C22.2576 26.8053 22.7167 26.4058 23.0633 25.9159C23.4099 25.426 23.6338 24.8601 23.7163 24.2657C23.7989 23.6713 23.7375 23.0658 23.5375 22.5H30.625C31.7853 22.5 32.8981 22.9609 33.7186 23.7814C34.5391 24.6019 35 25.7147 35 26.875V27.5C35 30.4913 33.0963 33.0213 30.3938 34.7413C27.6763 36.4713 23.9975 37.5 20 37.5C16.0025 37.5 12.325 36.4713 9.60625 34.7413C6.90375 33.0213 5 30.4913 5 27.5V26.875C5 25.7147 5.46094 24.6019 6.28141 23.7814C7.10188 22.9609 8.21468 22.5 9.375 22.5H11.0738C12.6724 24.1324 14.6879 25.2953 16.9012 25.8625C17.5762 26.8513 18.7137 27.5 20 27.5Z" fill="#070335"/>
</svg>
