<svg width="24" height="24" viewBox="0 0 24 24" fill="none" xmlns="http://www.w3.org/2000/svg">
<path d="M20 6.00001H17.82C17.93 5.69001 18 5.35001 18 5.00001C18.0011 4.35483 17.7939 3.72654 17.4092 3.2086C17.0245 2.69066 16.4829 2.31074 15.8649 2.12535C15.2469 1.93996 14.5856 1.959 13.9794 2.17966C13.3731 2.40031 12.8542 2.81078 12.5 3.35001L12 4.02001L11.5 3.34001C10.96 2.54001 10.05 2.00001 9 2.00001C7.34 2.00001 6 3.34001 6 5.00001C6 5.35001 6.07 5.69001 6.18 6.00001H4C2.89 6.00001 2.01 6.89001 2.01 8.00001L2 19C2 20.11 2.89 21 4 21H20C21.11 21 22 20.11 22 19V8.00001C22 6.89001 21.11 6.00001 20 6.00001ZM15 4.00001C15.55 4.00001 16 4.45001 16 5.00001C16 5.55001 15.55 6.00001 15 6.00001C14.45 6.00001 14 5.55001 14 5.00001C14 4.45001 14.45 4.00001 15 4.00001ZM9 4.00001C9.55 4.00001 10 4.45001 10 5.00001C10 5.55001 9.55 6.00001 9 6.00001C8.45 6.00001 8 5.55001 8 5.00001C8 4.45001 8.45 4.00001 9 4.00001ZM19 19H5C4.45 19 4 18.55 4 18V17H20V18C20 18.55 19.55 19 19 19ZM20 14H4V9.00001C4 8.45001 4.45 8.00001 5 8.00001H9.08L7.6 10.02C7.5216 10.126 7.46506 10.2466 7.43366 10.3747C7.40227 10.5027 7.39664 10.6358 7.41711 10.766C7.43758 10.8963 7.48374 11.0212 7.5529 11.1335C7.62207 11.2457 7.71286 11.3431 7.82 11.42C8.26 11.74 8.89 11.64 9.21 11.2L12 7.40001L14.79 11.2C15.11 11.64 15.74 11.74 16.18 11.42C16.63 11.1 16.73 10.47 16.4 10.02L14.92 8.00001H19C19.55 8.00001 20 8.45001 20 9.00001V14Z" fill="black"/>
</svg>
