<svg width="24" height="24" viewBox="0 0 24 24" fill="none" xmlns="http://www.w3.org/2000/svg">
<path d="M6.43464 1.92188C6.50073 4.71216 7.2025 7.50164 8.08112 9.78609C9.00409 12.1857 10.1477 14.0512 10.7982 14.7017L10.9218 14.8253V16.0781H13.0781V14.8253L13.2017 14.7017C13.8523 14.0511 14.9958 12.1857 15.9188 9.78609C16.7974 7.50164 17.4992 4.71216 17.5653 1.92188H6.43464ZM4.06253 5.1232C3.22018 5.4068 2.54865 5.97698 2.29886 6.54666C2.15753 6.86892 2.13573 7.17666 2.25254 7.4902C2.2659 7.52611 2.28161 7.56239 2.29923 7.59886C2.42896 7.51825 2.56195 7.44299 2.69786 7.3733L2.99209 7.22259L3.2087 7.47225C3.4495 7.74975 3.65917 8.05209 3.83786 8.36873C3.95847 8.2253 4.08193 8.00011 4.16833 7.71075C4.37884 7.00603 4.37092 5.97872 4.06253 5.1232ZM19.9374 5.1232C19.629 5.97867 19.6211 7.00603 19.8316 7.71075C19.918 8.00011 20.0415 8.2253 20.1621 8.36873C20.3408 8.05205 20.5504 7.74975 20.7912 7.47225L21.0078 7.22259L21.3021 7.3733C21.438 7.44299 21.571 7.51825 21.7007 7.59886C21.7183 7.56234 21.734 7.52611 21.7474 7.4902C21.8642 7.17666 21.8424 6.86892 21.7011 6.54666C21.4513 5.97698 20.7797 5.4068 19.9374 5.1232ZM2.78233 8.29852C1.83306 8.8838 1.1829 9.77391 1.05986 10.5472C0.992029 10.9738 1.06408 11.3546 1.30937 11.6978C1.38718 11.8067 1.48483 11.9131 1.60487 12.0147C1.76439 11.7666 1.94372 11.5318 2.14112 11.3126L2.36237 11.067L2.65379 11.2231C3.02458 11.4217 3.3692 11.6648 3.68223 11.938C3.72784 11.7677 3.75812 11.5681 3.76534 11.3467C3.79515 10.4355 3.44837 9.21216 2.78237 8.29852H2.78233ZM21.2176 8.29852C20.5515 9.21211 20.2048 10.4355 20.2346 11.3467C20.2418 11.5681 20.2721 11.7677 20.3177 11.938C20.6307 11.6648 20.9754 11.4217 21.3461 11.2231L21.6376 11.067L21.8588 11.3126C22.0562 11.5318 22.2355 11.7665 22.3951 12.0146C22.5151 11.9131 22.6127 11.8067 22.6906 11.6977C22.9359 11.3546 23.0079 10.9738 22.9401 10.5472C22.817 9.77391 22.1669 8.8838 21.2176 8.29852ZM2.54997 12.1469C1.87525 13.0284 1.58922 14.0881 1.7529 14.8538C1.84328 15.2763 2.04812 15.6075 2.40184 15.8418C2.63359 15.9954 2.93997 16.109 3.33653 16.1533C3.42505 15.866 3.53636 15.5861 3.66939 15.3165L3.81587 15.0194L4.13931 15.0914C4.33126 15.1341 4.52054 15.1873 4.70622 15.2497C4.68873 15.0697 4.64486 14.866 4.56911 14.6487C4.26836 13.7864 3.50275 12.7651 2.54997 12.1469ZM21.45 12.1469C20.4972 12.7651 19.7315 13.7864 19.4308 14.6487C19.3551 14.866 19.3112 15.0697 19.2937 15.2497C19.4798 15.187 19.669 15.1341 19.8606 15.0914L20.184 15.0194L20.3305 15.3165C20.4636 15.5861 20.5749 15.866 20.6634 16.1533C21.06 16.1091 21.3663 15.9953 21.5981 15.8418C21.9518 15.6075 22.1567 15.2763 22.247 14.8538C22.4107 14.0881 22.1247 13.0284 21.45 12.1469ZM4.28903 16.0091C3.85379 17.0938 3.86589 18.252 4.25579 18.9875C4.47001 19.3915 4.77639 19.6722 5.20586 19.8107C5.42083 19.8801 5.67259 19.9134 5.96453 19.8952C5.86445 19.3724 5.83464 18.8185 5.88222 18.2575L5.91043 17.9259L6.2395 17.876C6.44856 17.8445 6.65913 17.824 6.87034 17.8145C6.89631 17.8133 6.92223 17.8126 6.94815 17.8117C6.36601 17.0722 5.35989 16.3385 4.28903 16.0091ZM19.7109 16.0091C18.64 16.3385 17.6339 17.0722 17.0517 17.8117C17.0777 17.8126 17.1036 17.8133 17.1295 17.8145C17.3405 17.8242 17.5512 17.8444 17.7605 17.876L18.0895 17.9259L18.1177 18.2575C18.1653 18.8185 18.1355 19.3724 18.0354 19.8952C18.3273 19.9133 18.5792 19.8801 18.7941 19.8107C19.2235 19.6722 19.53 19.3915 19.7441 18.9875C20.134 18.252 20.1461 17.0937 19.7109 16.0091ZM9.36226 16.9219C9.27118 17.268 9.0789 17.5801 8.82948 17.8295C8.77751 17.881 8.72301 17.9299 8.66617 17.976C9.36011 18.1305 10.0096 18.3834 10.5601 18.7007C10.6719 18.4494 10.8121 18.2158 11.0011 18.0194C11.2481 17.7629 11.602 17.5781 12 17.5781C12.3979 17.5781 12.7519 17.7629 12.9988 18.0194C13.1878 18.2158 13.3281 18.4495 13.4398 18.7006C13.9937 18.3815 14.6476 18.1274 15.3462 17.9731C15.285 17.9229 15.2265 17.8695 15.171 17.8132C14.926 17.5632 14.7364 17.2576 14.6431 16.9219H9.36226ZM12 18.4219C11.839 18.4219 11.7358 18.4727 11.609 18.6045C11.4822 18.7362 11.3561 18.957 11.2562 19.2278C11.0563 19.7695 10.9589 20.4934 10.9208 21.03C10.8706 21.7351 11.0614 22.5941 11.4966 22.9078C11.7185 23.0677 12.2815 23.0677 12.5033 22.9078C12.9385 22.5941 13.1293 21.7351 13.0792 21.03C13.0411 20.4934 12.9437 19.7695 12.7437 19.2278C12.6438 18.957 12.5177 18.7362 12.3909 18.6045C12.2641 18.4727 12.1609 18.4219 12 18.4219ZM7.14742 18.6553C7.06704 18.6549 6.98694 18.6563 6.90709 18.6595C6.84123 18.6621 6.77725 18.6727 6.7119 18.6778C6.69231 19.9817 7.17203 21.1876 7.8835 21.8017C8.27087 22.1361 8.70784 22.3066 9.2124 22.2778C9.48934 22.262 9.79337 22.1827 10.1206 22.0191C10.061 21.6598 10.056 21.2962 10.0792 20.97C10.1088 20.5533 10.166 20.0343 10.2891 19.5227C9.48475 19.0218 8.3004 18.6604 7.14742 18.6552V18.6553ZM16.8525 18.6553C15.6995 18.6604 14.5152 19.0218 13.7108 19.5227C13.8339 20.0343 13.8911 20.5533 13.9208 20.97C13.9439 21.2962 13.9389 21.6598 13.8794 22.0191C14.2066 22.1827 14.5106 22.262 14.7876 22.2778C15.2921 22.3066 15.7291 22.1361 16.1165 21.8017C16.8279 21.1876 17.3076 19.9817 17.288 18.6778C17.2227 18.6727 17.1587 18.6621 17.0928 18.6595C17.0128 18.6563 16.9326 18.6549 16.8525 18.6553Z" fill="black"/>
</svg>
