<svg width="24" height="24" viewBox="0 0 24 24" fill="none" xmlns="http://www.w3.org/2000/svg">
<g clip-path="url(#clip0_526_40)">
<path d="M12.3559 10V16.5M12.3539 3.5C9.34593 3.5 7.39593 5.519 5.08993 6.255C4.15193 6.555 3.68293 6.704 3.49293 6.915C3.30293 7.125 3.24793 7.434 3.13693 8.05C1.94693 14.646 4.54693 20.744 10.7469 23.118C11.4119 23.373 11.7449 23.5 12.3569 23.5C12.9689 23.5 13.3029 23.372 13.9689 23.117C20.1679 20.744 22.7649 14.646 21.5749 8.05C21.4639 7.434 21.4079 7.125 21.2179 6.914C21.0279 6.703 20.5599 6.554 19.6219 6.255C17.3149 5.519 15.3619 3.5 12.3539 3.5Z" stroke="black" stroke-width="1.5" stroke-linecap="round" stroke-linejoin="round"/>
</g>
<defs>
<clipPath id="clip0_526_40">
<rect width="24" height="24" fill="white"/>
</clipPath>
</defs>
</svg>
